<svg xmlns="http://www.w3.org/2000/svg" xmlns:xlink="http://www.w3.org/1999/xlink" contentStyleType="text/css" height="636px" preserveAspectRatio="none" style="width:1813px;height:636px;background:#FFFFFF;" version="1.1" viewBox="0 0 1813 636" width="1813px" zoomAndPan="magnify"><defs/><g><!--cluster aeafa7587164f720f586c0f469a24529--><g id="cluster_aeafa7587164f720f586c0f469a24529"><polygon fill="none" points="160,16,170,6,574,6,574,517.78,564,527.78,160,527.78,160,16" style="stroke:#181818;stroke-width:1.0;"/><line style="stroke:#181818;stroke-width:1.0;" x1="564" x2="574" y1="16" y2="6"/><line style="stroke:#181818;stroke-width:1.0;" x1="160" x2="564" y1="16" y2="16"/><line style="stroke:#181818;stroke-width:1.0;" x1="564" x2="564" y1="16" y2="527.78"/><text fill="#000000" font-family="sans-serif" font-size="14" font-weight="bold" lengthAdjust="spacing" textLength="49" x="338.5" y="31.9951">Caddy</text></g><!--cluster cb312febe5ec14892d31c0dbf657bab7--><g id="cluster_cb312febe5ec14892d31c0dbf657bab7"><polygon fill="none" points="749,32.3,759,22.3,1502,22.3,1502,517.78,1492,527.78,749,527.78,749,32.3" style="stroke:#181818;stroke-width:1.0;"/><line style="stroke:#181818;stroke-width:1.0;" x1="1492" x2="1502" y1="32.3" y2="22.3"/><line style="stroke:#181818;stroke-width:1.0;" x1="749" x2="1492" y1="32.3" y2="32.3"/><line style="stroke:#181818;stroke-width:1.0;" x1="1492" x2="1492" y1="32.3" y2="527.78"/><text fill="#000000" font-family="sans-serif" font-size="14" font-weight="bold" lengthAdjust="spacing" textLength="132" x="1055.5" y="48.2951">Django-helpdesk</text></g><!--cluster e8a48653851e28c69d0506508fb27fc5--><g id="cluster_e8a48653851e28c69d0506508fb27fc5"><polygon fill="none" points="1526,24.15,1536,14.15,1796,14.15,1796,517.78,1786,527.78,1526,527.78,1526,24.15" style="stroke:#181818;stroke-width:1.0;"/><line style="stroke:#181818;stroke-width:1.0;" x1="1786" x2="1796" y1="24.15" y2="14.15"/><line style="stroke:#181818;stroke-width:1.0;" x1="1526" x2="1786" y1="24.15" y2="24.15"/><line style="stroke:#181818;stroke-width:1.0;" x1="1786" x2="1786" y1="24.15" y2="527.78"/><text fill="#000000" font-family="sans-serif" font-size="14" font-weight="bold" lengthAdjust="spacing" textLength="71" x="1621.5" y="40.1451">Postgres</text></g><!--entity e4431476069367d02242d73fecb2c0d0--><g id="elem_e4431476069367d02242d73fecb2c0d0"><rect fill="#F1F1F1" height="111.4844" rx="2.5" ry="2.5" style="stroke:#181818;stroke-width:0.5;" width="203" x="277.5" y="46"/><rect fill="#F1F1F1" height="10" style="stroke:#181818;stroke-width:0.5;" width="15" x="460.5" y="51"/><rect fill="#F1F1F1" height="2" style="stroke:#181818;stroke-width:0.5;" width="4" x="458.5" y="53"/><rect fill="#F1F1F1" height="2" style="stroke:#181818;stroke-width:0.5;" width="4" x="458.5" y="57"/><text fill="#000000" font-family="sans-serif" font-size="14" font-weight="bold" lengthAdjust="spacing" textLength="47" x="292.5" y="78.9951">caddy</text><text fill="#000000" font-family="sans-serif" font-size="14" lengthAdjust="spacing" textLength="4" x="292.5" y="95.292">&#160;</text><text fill="#000000" font-family="sans-serif" font-size="14" lengthAdjust="spacing" textLength="106" x="292.5" y="111.5889">image: caddy:2</text><text fill="#000000" font-family="sans-serif" font-size="14" lengthAdjust="spacing" textLength="163" x="292.5" y="127.8857">restart: unless-stopped</text><text fill="#000000" font-family="sans-serif" font-size="14" lengthAdjust="spacing" textLength="4" x="292.5" y="144.1826">&#160;</text></g><!--entity 2956c0a9613de1f08caca648f12f3e50--><g id="elem_2956c0a9613de1f08caca648f12f3e50"><ellipse cx="442" cy="247.49" fill="#F1F1F1" rx="8" ry="8" style="stroke:#181818;stroke-width:0.5;"/><text fill="#000000" font-family="sans-serif" font-size="14" lengthAdjust="spacing" textLength="18" x="433" y="277.4851">80</text></g><!--entity 3f6a6886da9033c1decbf1ce381ab160--><g id="elem_3f6a6886da9033c1decbf1ce381ab160"><ellipse cx="531" cy="247.49" fill="#F1F1F1" rx="8" ry="8" style="stroke:#181818;stroke-width:0.5;"/><text fill="#000000" font-family="sans-serif" font-size="14" lengthAdjust="spacing" textLength="27" x="517.5" y="277.4851">443</text></g><!--entity c2254d174f183f49e2f00e4d196aff64--><g id="elem_c2254d174f183f49e2f00e4d196aff64"><rect fill="#F1F1F1" height="39.2969" rx="2.5" ry="2.5" style="stroke:#181818;stroke-width:0.5;" width="65" x="176.5" y="472.49"/><polygon fill="#F1F1F1" points="224.5,477.49,224.5,491.49,236.5,491.49,236.5,483.49,230.5,477.49,224.5,477.49" style="stroke:#181818;stroke-width:0.5;"/><line style="stroke:#181818;stroke-width:0.5;" x1="230.5" x2="230.5" y1="477.49" y2="483.49"/><line style="stroke:#181818;stroke-width:0.5;" x1="236.5" x2="230.5" y1="483.49" y2="483.49"/><text fill="#000000" font-family="sans-serif" font-size="14" lengthAdjust="spacing" textLength="35" x="186.5" y="498.4851">/data</text></g><!--entity 6ee9ea0459a1dec127d4d8d47f8fdc20--><g id="elem_6ee9ea0459a1dec127d4d8d47f8fdc20"><rect fill="#F1F1F1" height="39.2969" rx="2.5" ry="2.5" style="stroke:#181818;stroke-width:0.5;" width="77" x="276.5" y="472.49"/><polygon fill="#F1F1F1" points="336.5,477.49,336.5,491.49,348.5,491.49,348.5,483.49,342.5,477.49,336.5,477.49" style="stroke:#181818;stroke-width:0.5;"/><line style="stroke:#181818;stroke-width:0.5;" x1="342.5" x2="342.5" y1="477.49" y2="483.49"/><line style="stroke:#181818;stroke-width:0.5;" x1="348.5" x2="342.5" y1="483.49" y2="483.49"/><text fill="#000000" font-family="sans-serif" font-size="14" lengthAdjust="spacing" textLength="47" x="286.5" y="498.4851">/config</text></g><!--entity d1c6d257e40308821d02233bb3460b37--><g id="elem_d1c6d257e40308821d02233bb3460b37"><rect fill="#F1F1F1" height="39.2969" rx="2.5" ry="2.5" style="stroke:#181818;stroke-width:0.5;" width="170" x="388" y="472.49"/><polygon fill="#F1F1F1" points="541,477.49,541,491.49,553,491.49,553,483.49,547,477.49,541,477.49" style="stroke:#181818;stroke-width:0.5;"/><line style="stroke:#181818;stroke-width:0.5;" x1="547" x2="547" y1="477.49" y2="483.49"/><line style="stroke:#181818;stroke-width:0.5;" x1="553" x2="547" y1="483.49" y2="483.49"/><text fill="#000000" font-family="sans-serif" font-size="14" lengthAdjust="spacing" textLength="140" x="398" y="498.4851">/etc/caddy/Caddyfile</text></g><!--entity a2a3fe0b5ed31c5a488961cc75dfc364--><g id="elem_a2a3fe0b5ed31c5a488961cc75dfc364"><rect fill="#F1F1F1" height="78.8906" rx="2.5" ry="2.5" style="stroke:#181818;stroke-width:0.5;" width="171" x="903.5" y="62.3"/><rect fill="#F1F1F1" height="10" style="stroke:#181818;stroke-width:0.5;" width="15" x="1054.5" y="67.3"/><rect fill="#F1F1F1" height="2" style="stroke:#181818;stroke-width:0.5;" width="4" x="1052.5" y="69.3"/><rect fill="#F1F1F1" height="2" style="stroke:#181818;stroke-width:0.5;" width="4" x="1052.5" y="73.3"/><text fill="#000000" font-family="sans-serif" font-size="14" font-weight="bold" lengthAdjust="spacing" textLength="131" x="918.5" y="95.2951">django-helpdesk</text><text fill="#000000" font-family="sans-serif" font-size="14" lengthAdjust="spacing" textLength="4" x="918.5" y="111.592">&#160;</text><text fill="#000000" font-family="sans-serif" font-size="14" lengthAdjust="spacing" textLength="4" x="918.5" y="127.8889">&#160;</text></g><!--entity d4b47b01f48344bb425baffb9bbdb47b--><g id="elem_d4b47b01f48344bb425baffb9bbdb47b"><rect fill="#F1F1F1" height="39.2969" rx="2.5" ry="2.5" style="stroke:#181818;stroke-width:0.5;" width="70" x="765" y="472.49"/><polygon fill="#F1F1F1" points="818,477.49,818,491.49,830,491.49,830,483.49,824,477.49,818,477.49" style="stroke:#181818;stroke-width:0.5;"/><line style="stroke:#181818;stroke-width:0.5;" x1="824" x2="824" y1="477.49" y2="483.49"/><line style="stroke:#181818;stroke-width:0.5;" x1="830" x2="824" y1="483.49" y2="483.49"/><text fill="#000000" font-family="sans-serif" font-size="14" lengthAdjust="spacing" textLength="40" x="775" y="498.4851">/data/</text></g><!--entity 562f1bf57c8b76977aeac96bc330106b--><g id="elem_562f1bf57c8b76977aeac96bc330106b"><rect fill="#F1F1F1" height="39.2969" rx="2.5" ry="2.5" style="stroke:#181818;stroke-width:0.5;" width="615" x="870.5" y="472.49"/><polygon fill="#F1F1F1" points="1468.5,477.49,1468.5,491.49,1480.5,491.49,1480.5,483.49,1474.5,477.49,1468.5,477.49" style="stroke:#181818;stroke-width:0.5;"/><line style="stroke:#181818;stroke-width:0.5;" x1="1474.5" x2="1474.5" y1="477.49" y2="483.49"/><line style="stroke:#181818;stroke-width:0.5;" x1="1480.5" x2="1474.5" y1="483.49" y2="483.49"/><text fill="#000000" font-family="sans-serif" font-size="14" lengthAdjust="spacing" textLength="585" x="880.5" y="498.4851">/opt/django-helpdesk/helpdesk/templates/helpdesk/custom_navigation_header.html</text></g><!--entity 086f471fbe3ab94b73c9798cd7d205b7--><g id="elem_086f471fbe3ab94b73c9798cd7d205b7"><rect fill="#F1F1F1" height="95.1875" rx="2.5" ry="2.5" style="stroke:#181818;stroke-width:0.5;" width="238" x="1542" y="54.15"/><rect fill="#F1F1F1" height="10" style="stroke:#181818;stroke-width:0.5;" width="15" x="1760" y="59.15"/><rect fill="#F1F1F1" height="2" style="stroke:#181818;stroke-width:0.5;" width="4" x="1758" y="61.15"/><rect fill="#F1F1F1" height="2" style="stroke:#181818;stroke-width:0.5;" width="4" x="1758" y="65.15"/><text fill="#000000" font-family="sans-serif" font-size="14" font-weight="bold" lengthAdjust="spacing" textLength="71" x="1557" y="87.1451">postgres</text><text fill="#000000" font-family="sans-serif" font-size="14" lengthAdjust="spacing" textLength="4" x="1557" y="103.442">&#160;</text><text fill="#000000" font-family="sans-serif" font-size="14" lengthAdjust="spacing" textLength="198" x="1557" y="119.7389">image: postgres:12-bullseye</text><text fill="#000000" font-family="sans-serif" font-size="14" lengthAdjust="spacing" textLength="4" x="1557" y="136.0357">&#160;</text></g><!--entity be37e40b068362ad529067845ac94bd0--><g id="elem_be37e40b068362ad529067845ac94bd0"><rect fill="#F1F1F1" height="39.2969" rx="2.5" ry="2.5" style="stroke:#181818;stroke-width:0.5;" width="189" x="1566.5" y="472.49"/><polygon fill="#F1F1F1" points="1738.5,477.49,1738.5,491.49,1750.5,491.49,1750.5,483.49,1744.5,477.49,1738.5,477.49" style="stroke:#181818;stroke-width:0.5;"/><line style="stroke:#181818;stroke-width:0.5;" x1="1744.5" x2="1744.5" y1="477.49" y2="483.49"/><line style="stroke:#181818;stroke-width:0.5;" x1="1750.5" x2="1744.5" y1="483.49" y2="483.49"/><text fill="#000000" font-family="sans-serif" font-size="14" lengthAdjust="spacing" textLength="159" x="1576.5" y="498.4851">/var/lib/postgresql/data</text></g><!--entity dba3f4d0bb5aa6fcfa18da2c1f7a9775--><g id="elem_dba3f4d0bb5aa6fcfa18da2c1f7a9775"><ellipse cx="617" cy="382.49" fill="#F1F1F1" rx="8" ry="8" style="stroke:#181818;stroke-width:0.5;"/><text fill="#000000" font-family="sans-serif" font-size="14" lengthAdjust="spacing" textLength="18" x="608" y="412.4851">80</text></g><!--entity 8a81c9bb0ec23d07684c1472053c60fe--><g id="elem_8a81c9bb0ec23d07684c1472053c60fe"><ellipse cx="706" cy="382.49" fill="#F1F1F1" rx="8" ry="8" style="stroke:#181818;stroke-width:0.5;"/><text fill="#000000" font-family="sans-serif" font-size="14" lengthAdjust="spacing" textLength="27" x="692.5" y="412.4851">443</text></g><!--entity 317ac2b2ee8b606e400ea1b544e68970--><g id="elem_317ac2b2ee8b606e400ea1b544e68970"><rect fill="#F1F1F1" height="39.2969" rx="2.5" ry="2.5" style="stroke:#181818;stroke-width:0.5;" width="178" x="7" y="590.78"/><polygon fill="#F1F1F1" points="168,595.78,168,609.78,180,609.78,180,601.78,174,595.78,168,595.78" style="stroke:#181818;stroke-width:0.5;"/><line style="stroke:#181818;stroke-width:0.5;" x1="174" x2="174" y1="595.78" y2="601.78"/><line style="stroke:#181818;stroke-width:0.5;" x1="180" x2="174" y1="601.78" y2="601.78"/><text fill="#000000" font-family="sans-serif" font-size="14" lengthAdjust="spacing" textLength="148" x="17" y="616.7751">/tmp/data/caddy/data</text></g><!--entity 8fc5209ad6b3386a4d1d4ccf40001cea--><g id="elem_8fc5209ad6b3386a4d1d4ccf40001cea"><rect fill="#F1F1F1" height="39.2969" rx="2.5" ry="2.5" style="stroke:#181818;stroke-width:0.5;" width="190" x="220" y="590.78"/><polygon fill="#F1F1F1" points="393,595.78,393,609.78,405,609.78,405,601.78,399,595.78,393,595.78" style="stroke:#181818;stroke-width:0.5;"/><line style="stroke:#181818;stroke-width:0.5;" x1="399" x2="399" y1="595.78" y2="601.78"/><line style="stroke:#181818;stroke-width:0.5;" x1="405" x2="399" y1="601.78" y2="601.78"/><text fill="#000000" font-family="sans-serif" font-size="14" lengthAdjust="spacing" textLength="160" x="230" y="616.7751">/tmp/data/caddy/config</text></g><!--entity 35fcec76e927d53e1f5065a056979974--><g id="elem_35fcec76e927d53e1f5065a056979974"><rect fill="#F1F1F1" height="39.2969" rx="2.5" ry="2.5" style="stroke:#181818;stroke-width:0.5;" width="101" x="445.5" y="590.78"/><polygon fill="#F1F1F1" points="529.5,595.78,529.5,609.78,541.5,609.78,541.5,601.78,535.5,595.78,529.5,595.78" style="stroke:#181818;stroke-width:0.5;"/><line style="stroke:#181818;stroke-width:0.5;" x1="535.5" x2="535.5" y1="595.78" y2="601.78"/><line style="stroke:#181818;stroke-width:0.5;" x1="541.5" x2="535.5" y1="601.78" y2="601.78"/><text fill="#000000" font-family="sans-serif" font-size="14" lengthAdjust="spacing" textLength="71" x="455.5" y="616.7751">./Caddyfile</text></g><!--entity 3f91c5904d177f07ca4aa00159dd8b29--><g id="elem_3f91c5904d177f07ca4aa00159dd8b29"><rect fill="#F1F1F1" height="39.2969" rx="2.5" ry="2.5" style="stroke:#181818;stroke-width:0.5;" width="218" x="691" y="590.78"/><polygon fill="#F1F1F1" points="892,595.78,892,609.78,904,609.78,904,601.78,898,595.78,892,595.78" style="stroke:#181818;stroke-width:0.5;"/><line style="stroke:#181818;stroke-width:0.5;" x1="898" x2="898" y1="595.78" y2="601.78"/><line style="stroke:#181818;stroke-width:0.5;" x1="904" x2="898" y1="601.78" y2="601.78"/><text fill="#000000" font-family="sans-serif" font-size="14" lengthAdjust="spacing" textLength="188" x="701" y="616.7751">/tmp/django-helpdesk-data</text></g><!--entity c6f54af94b2495a13c5e848c4d753b84--><g id="elem_c6f54af94b2495a13c5e848c4d753b84"><rect fill="#F1F1F1" height="39.2969" rx="2.5" ry="2.5" style="stroke:#181818;stroke-width:0.5;" width="258" x="1049" y="590.78"/><polygon fill="#F1F1F1" points="1290,595.78,1290,609.78,1302,609.78,1302,601.78,1296,595.78,1290,595.78" style="stroke:#181818;stroke-width:0.5;"/><line style="stroke:#181818;stroke-width:0.5;" x1="1296" x2="1296" y1="595.78" y2="601.78"/><line style="stroke:#181818;stroke-width:0.5;" x1="1302" x2="1296" y1="601.78" y2="601.78"/><text fill="#000000" font-family="sans-serif" font-size="14" lengthAdjust="spacing" textLength="228" x="1059" y="616.7751">./custom_navigation_header.html</text></g><!--entity 36fa9755479351a3a9cf9527f86c931f--><g id="elem_36fa9755479351a3a9cf9527f86c931f"><rect fill="#F1F1F1" height="39.2969" rx="2.5" ry="2.5" style="stroke:#181818;stroke-width:0.5;" width="57" x="1632.5" y="590.78"/><polygon fill="#F1F1F1" points="1672.5,595.78,1672.5,609.78,1684.5,609.78,1684.5,601.78,1678.5,595.78,1672.5,595.78" style="stroke:#181818;stroke-width:0.5;"/><line style="stroke:#181818;stroke-width:0.5;" x1="1678.5" x2="1678.5" y1="595.78" y2="601.78"/><line style="stroke:#181818;stroke-width:0.5;" x1="1684.5" x2="1678.5" y1="601.78" y2="601.78"/><text fill="#000000" font-family="sans-serif" font-size="14" lengthAdjust="spacing" textLength="27" x="1642.5" y="616.7751">./db</text></g><!--link e4431476069367d02242d73fecb2c0d0 to 2956c0a9613de1f08caca648f12f3e50--><g id="link_e4431476069367d02242d73fecb2c0d0_2956c0a9613de1f08caca648f12f3e50"><path codeLine="42" d="M403.18,157.91 C416.64,188.63 431.99,223.66 438.64,238.82 " fill="none" id="e4431476069367d02242d73fecb2c0d0-2956c0a9613de1f08caca648f12f3e50" style="stroke:#181818;stroke-width:1.0;"/></g><!--link 2956c0a9613de1f08caca648f12f3e50 to dba3f4d0bb5aa6fcfa18da2c1f7a9775--><g id="link_2956c0a9613de1f08caca648f12f3e50_dba3f4d0bb5aa6fcfa18da2c1f7a9775"><path codeLine="43" d="M450.92,255.26 C481.01,278.13 578.56,352.27 608.31,374.88 " fill="none" id="2956c0a9613de1f08caca648f12f3e50-dba3f4d0bb5aa6fcfa18da2c1f7a9775" style="stroke:#181818;stroke-width:1.0;"/></g><!--link e4431476069367d02242d73fecb2c0d0 to 3f6a6886da9033c1decbf1ce381ab160--><g id="link_e4431476069367d02242d73fecb2c0d0_3f6a6886da9033c1decbf1ce381ab160"><path codeLine="44" d="M437.33,157.91 C469.82,188.63 506.86,223.66 522.89,238.82 " fill="none" id="e4431476069367d02242d73fecb2c0d0-3f6a6886da9033c1decbf1ce381ab160" style="stroke:#181818;stroke-width:1.0;"/></g><!--link 3f6a6886da9033c1decbf1ce381ab160 to 8a81c9bb0ec23d07684c1472053c60fe--><g id="link_3f6a6886da9033c1decbf1ce381ab160_8a81c9bb0ec23d07684c1472053c60fe"><path codeLine="45" d="M539.92,255.26 C570.01,278.13 667.56,352.27 697.31,374.88 " fill="none" id="3f6a6886da9033c1decbf1ce381ab160-8a81c9bb0ec23d07684c1472053c60fe" style="stroke:#181818;stroke-width:1.0;"/></g><!--link c2254d174f183f49e2f00e4d196aff64 to 317ac2b2ee8b606e400ea1b544e68970--><g id="link_c2254d174f183f49e2f00e4d196aff64_317ac2b2ee8b606e400ea1b544e68970"><path codeLine="46" d="M190.59,512.08 C169.58,533.7 135.41,568.87 114.4,590.5 " fill="none" id="c2254d174f183f49e2f00e4d196aff64-317ac2b2ee8b606e400ea1b544e68970" style="stroke:#181818;stroke-width:1.0;"/><text fill="#000000" font-family="sans-serif" font-size="13" lengthAdjust="spacing" textLength="14" x="160" y="556.8469">rw</text></g><!--link e4431476069367d02242d73fecb2c0d0 to c2254d174f183f49e2f00e4d196aff64--><g id="link_e4431476069367d02242d73fecb2c0d0_c2254d174f183f49e2f00e4d196aff64"><path codeLine="47" d="M342.97,157.86 C331.39,176.69 318.99,198.14 309,218.49 C264.12,309.91 229.5055,421.0545 216.1755,466.3045 " fill="none" id="e4431476069367d02242d73fecb2c0d0-to-c2254d174f183f49e2f00e4d196aff64" style="stroke:#181818;stroke-width:1.0;stroke-dasharray:7.0,7.0;"/><polygon fill="#181818" points="214.48,472.06,220.8602,464.5571,215.8929,467.2638,213.1862,462.2965,214.48,472.06" style="stroke:#181818;stroke-width:1.0;"/><text fill="#000000" font-family="sans-serif" font-size="13" lengthAdjust="spacing" textLength="23" x="271" y="319.5569">use</text></g><!--link 6ee9ea0459a1dec127d4d8d47f8fdc20 to 8fc5209ad6b3386a4d1d4ccf40001cea--><g id="link_6ee9ea0459a1dec127d4d8d47f8fdc20_8fc5209ad6b3386a4d1d4ccf40001cea"><path codeLine="48" d="M315,512.08 C315,533.7 315,568.87 315,590.5 " fill="none" id="6ee9ea0459a1dec127d4d8d47f8fdc20-8fc5209ad6b3386a4d1d4ccf40001cea" style="stroke:#181818;stroke-width:1.0;"/><text fill="#000000" font-family="sans-serif" font-size="13" lengthAdjust="spacing" textLength="14" x="316" y="556.8469">rw</text></g><!--link e4431476069367d02242d73fecb2c0d0 to 6ee9ea0459a1dec127d4d8d47f8fdc20--><g id="link_e4431476069367d02242d73fecb2c0d0_6ee9ea0459a1dec127d4d8d47f8fdc20"><path codeLine="49" d="M355.27,157.73 C339.2,198.05 319.43,254.59 311,306.49 C301.28,366.3 307.3419,432.4868 311.5719,466.1468 " fill="none" id="e4431476069367d02242d73fecb2c0d0-to-6ee9ea0459a1dec127d4d8d47f8fdc20" style="stroke:#181818;stroke-width:1.0;stroke-dasharray:7.0,7.0;"/><polygon fill="#181818" points="312.32,472.1,315.1666,462.6715,311.6966,467.139,307.229,463.669,312.32,472.1" style="stroke:#181818;stroke-width:1.0;"/><text fill="#000000" font-family="sans-serif" font-size="13" lengthAdjust="spacing" textLength="23" x="312" y="319.5569">use</text></g><!--link d1c6d257e40308821d02233bb3460b37 to 35fcec76e927d53e1f5065a056979974--><g id="link_d1c6d257e40308821d02233bb3460b37_35fcec76e927d53e1f5065a056979974"><path codeLine="50" d="M476.75,512.08 C481.02,533.7 487.98,568.87 492.26,590.5 " fill="none" id="d1c6d257e40308821d02233bb3460b37-35fcec76e927d53e1f5065a056979974" style="stroke:#181818;stroke-width:1.0;"/><text fill="#000000" font-family="sans-serif" font-size="13" lengthAdjust="spacing" textLength="5" x="486" y="556.8469">r</text></g><!--link e4431476069367d02242d73fecb2c0d0 to d1c6d257e40308821d02233bb3460b37--><g id="link_e4431476069367d02242d73fecb2c0d0_d1c6d257e40308821d02233bb3460b37"><path codeLine="51" d="M381.8,157.66 C384.35,192.11 389.13,237.27 398,276.49 C414.81,350.79 446.5471,429.5406 462.3071,466.5106 " fill="none" id="e4431476069367d02242d73fecb2c0d0-to-d1c6d257e40308821d02233bb3460b37" style="stroke:#181818;stroke-width:1.0;stroke-dasharray:7.0,7.0;"/><polygon fill="#181818" points="464.66,472.03,464.8103,462.1823,462.6993,467.4305,457.4511,465.3195,464.66,472.03" style="stroke:#181818;stroke-width:1.0;"/><text fill="#000000" font-family="sans-serif" font-size="13" lengthAdjust="spacing" textLength="23" x="411" y="319.5569">use</text></g><!--link d4b47b01f48344bb425baffb9bbdb47b to 3f91c5904d177f07ca4aa00159dd8b29--><g id="link_d4b47b01f48344bb425baffb9bbdb47b_3f91c5904d177f07ca4aa00159dd8b29"><path codeLine="52" d="M800,512.08 C800,533.7 800,568.87 800,590.5 " fill="none" id="d4b47b01f48344bb425baffb9bbdb47b-3f91c5904d177f07ca4aa00159dd8b29" style="stroke:#181818;stroke-width:1.0;"/><text fill="#000000" font-family="sans-serif" font-size="13" lengthAdjust="spacing" textLength="14" x="801" y="556.8469">rw</text></g><!--link a2a3fe0b5ed31c5a488961cc75dfc364 to d4b47b01f48344bb425baffb9bbdb47b--><g id="link_a2a3fe0b5ed31c5a488961cc75dfc364_d4b47b01f48344bb425baffb9bbdb47b"><path codeLine="53" d="M970.19,141.4 C930.32,223.33 841.2055,406.465 811.8455,466.795 " fill="none" id="a2a3fe0b5ed31c5a488961cc75dfc364-to-d4b47b01f48344bb425baffb9bbdb47b" style="stroke:#181818;stroke-width:1.0;stroke-dasharray:7.0,7.0;"/><polygon fill="#181818" points="809.22,472.19,816.755,465.8478,811.4079,467.6941,809.5616,462.3471,809.22,472.19" style="stroke:#181818;stroke-width:1.0;"/><text fill="#000000" font-family="sans-serif" font-size="13" lengthAdjust="spacing" textLength="23" x="890" y="319.5569">use</text></g><!--link 562f1bf57c8b76977aeac96bc330106b to c6f54af94b2495a13c5e848c4d753b84--><g id="link_562f1bf57c8b76977aeac96bc330106b_c6f54af94b2495a13c5e848c4d753b84"><path codeLine="54" d="M1178,512.08 C1178,533.7 1178,568.87 1178,590.5 " fill="none" id="562f1bf57c8b76977aeac96bc330106b-c6f54af94b2495a13c5e848c4d753b84" style="stroke:#181818;stroke-width:1.0;"/><text fill="#000000" font-family="sans-serif" font-size="13" lengthAdjust="spacing" textLength="5" x="1179" y="556.8469">r</text></g><!--link a2a3fe0b5ed31c5a488961cc75dfc364 to 562f1bf57c8b76977aeac96bc330106b--><g id="link_a2a3fe0b5ed31c5a488961cc75dfc364_562f1bf57c8b76977aeac96bc330106b"><path codeLine="55" d="M1007.81,141.4 C1047.68,223.33 1136.7945,406.465 1166.1545,466.795 " fill="none" id="a2a3fe0b5ed31c5a488961cc75dfc364-to-562f1bf57c8b76977aeac96bc330106b" style="stroke:#181818;stroke-width:1.0;stroke-dasharray:7.0,7.0;"/><polygon fill="#181818" points="1168.78,472.19,1168.4384,462.3471,1166.5921,467.6941,1161.245,465.8478,1168.78,472.19" style="stroke:#181818;stroke-width:1.0;"/><text fill="#000000" font-family="sans-serif" font-size="13" lengthAdjust="spacing" textLength="23" x="1097" y="319.5569">use</text></g><!--link be37e40b068362ad529067845ac94bd0 to 36fa9755479351a3a9cf9527f86c931f--><g id="link_be37e40b068362ad529067845ac94bd0_36fa9755479351a3a9cf9527f86c931f"><path codeLine="56" d="M1661,512.08 C1661,533.7 1661,568.87 1661,590.5 " fill="none" id="be37e40b068362ad529067845ac94bd0-36fa9755479351a3a9cf9527f86c931f" style="stroke:#181818;stroke-width:1.0;"/><text fill="#000000" font-family="sans-serif" font-size="13" lengthAdjust="spacing" textLength="14" x="1662" y="556.8469">rw</text></g><!--link 086f471fbe3ab94b73c9798cd7d205b7 to be37e40b068362ad529067845ac94bd0--><g id="link_086f471fbe3ab94b73c9798cd7d205b7_be37e40b068362ad529067845ac94bd0"><path codeLine="57" d="M1661,149.59 C1661,235.34 1661,408.07 1661,466.33 " fill="none" id="086f471fbe3ab94b73c9798cd7d205b7-to-be37e40b068362ad529067845ac94bd0" style="stroke:#181818;stroke-width:1.0;stroke-dasharray:7.0,7.0;"/><polygon fill="#181818" points="1661,472.33,1665,463.33,1661,467.33,1657,463.33,1661,472.33" style="stroke:#181818;stroke-width:1.0;"/><text fill="#000000" font-family="sans-serif" font-size="13" lengthAdjust="spacing" textLength="23" x="1662" y="319.5569">use</text></g><!--SRC=[bLNBZYCt3BptLpHyIWQmhGVrcaCkoGVa7WGBYY8zJjgFZ7jsimZoxr6txHbx5bXDRhPQ8el5AXA7uV1bj_rxkzzq-qFXVl4pbl9rqUEfHqR1u6BG7YGO9IvwKW8-eG5dKlzFrzDXTppiUJ_s360r1AzyiZuKPGoO4gmmPKEggFwtxk61fk0F3rsttU667_lv_wFfdlaqulFusB_i1pwTbgVnS3nowRhVknz-x1THpO1CSXK09gzjOIqg4X9wYAADM7PglbjXp9UjUFGn-e99MKkwL22YYMtKcBLNNSst5QInNwmBZZW_8cCS51r0TBG2YOqenVKaUHJnSFk83dlPRkPddZanAd09fppQX08b5WWIfP2voyKZhUUorpFJiXruZb4q-M9SO51MnMZqHA6rELlmAjlG_Njfq2z_u7vpM3xnS2ny-lECEzlA0MTsDJl4P8hLbVGiteMCETot2WtMlgZiUBhc46Aid185LuIiXxbLvJxDrBJQZNUahS_G8KF8IWj42v0p69ShNJdbNAOljwyEnt7zBlJwzSV8k-E08v_UZkYbQc7tQO-VjniSjuVzfoV6mi-hft4tpDcTDwApk40n1vz2gBgbv3DPgxJo-PMuNm-dSLELDh_YMClspaQdsKJogIYdl5DHiWb2xfun5Rr0q9BPOawGWwKKKgGIYb6kyZinThp4lz7tzUXHcsL-6OOJV-LtD7x6v_MmpUlhrR-6DpdMT9CUilBHUeEbcaxv4C7L0Y4NLKkxiKV9jQrGLCuEqGi9wbZGa9Q0bHPtPu-8KLDja68ojgZW8rJbL9SxIru9tq8STyTpjy-wVOLdTK0osJ37N7rVaIf6dHq0-vY2-awC6_F4ohPH2OlFraQFrMq5YAH6KzMlU1DbzSuprWan1S-fEixPEXEc7g9oLGOf1VW6mBtmbc-LIAf6I6hoVX0L206nfdUfb9XDkiFGbYHvSO1IUsGWETIM74U812KucoFSXIlv3C5BxP9p499r6YqcakIg5klGJLPBrnomox9iZyZMXJbAKqaVmjASmAqBSvIcK5ip-uob8TN-iLyyVrcq2rkjochrKtDHJF5UJhpeMglXN6F30lyNNJFf5LrhwPovQxXiHlTnSCsSh-0QQ-KYikyxzqfTS-TTqRMINj6rriwChZK8BjHz55mpvnLSQt6SgMjCd2jrpULtGTTCUa7t7m00]--></g></svg>