<?xml version="1.0" standalone="no"?>
<!DOCTYPE svg PUBLIC "-//W3C//DTD SVG 1.1//EN" "http://www.w3.org/Graphics/SVG/1.1/DTD/svg11.dtd" >
<svg xmlns="http://www.w3.org/2000/svg">
<metadata></metadata>
<defs>
<font id="nokia_pure_textlight" horiz-adv-x="1212" >
<font-face units-per-em="2048" ascent="1579" descent="-469" />
<missing-glyph horiz-adv-x="518" />
<glyph unicode="&#xfb03;" horiz-adv-x="1849" d="M70 909v107h200v110q0 94 17.5 172t59.5 134.5t108.5 87t165.5 30.5q53 0 97 -7t66 -13l-16 -100q-16 4 -50 8t-69 4q-76 0 -125 -18.5t-78.5 -59.5t-41 -105.5t-11.5 -158.5v-84h516v110q0 94 17.5 172t58.5 134.5t107.5 87t162.5 30.5q51 0 93.5 -7t66.5 -13l-16 -100 q-16 4 -49 8t-66 4q-74 0 -122 -18.5t-77.5 -59.5t-41 -105.5t-11.5 -158.5v-84h645v-1016h-123v909h-522v-909h-123v909h-516v-909h-123v909h-200zM1522 1356q0 45 25.5 72.5t66.5 27.5t67.5 -27.5t26.5 -72.5q0 -47 -26.5 -74t-67.5 -27t-66.5 28t-25.5 73z" />
<glyph unicode="&#xfb04;" horiz-adv-x="1857" d="M70 909v107h200v110q0 94 17.5 172t59.5 134.5t108.5 87t165.5 30.5q53 0 97 -7t66 -13l-16 -100q-16 4 -50 8t-69 4q-76 0 -125 -18.5t-78.5 -59.5t-41 -105.5t-11.5 -158.5v-84h516v110q0 94 17.5 172t58.5 134.5t107.5 87t162.5 30.5q51 0 93.5 -7t66.5 -13l-16 -100 q-16 4 -49 8t-66 4q-74 0 -122 -18.5t-77.5 -59.5t-41 -105.5t-11.5 -158.5v-84h314v-107h-314v-909h-123v909h-516v-909h-123v909h-200zM1571 0v1536h121v-1536h-121z" />
<glyph unicode="&#xd;" horiz-adv-x="518" />
<glyph horiz-adv-x="0" />
<glyph horiz-adv-x="0" />
<glyph unicode=" "  horiz-adv-x="518" />
<glyph unicode="&#x09;" horiz-adv-x="518" />
<glyph unicode="&#xa0;" horiz-adv-x="518" />
<glyph unicode="!" horiz-adv-x="573" d="M186 90q0 49 29 79t72 30t71.5 -29t28.5 -80q0 -49 -28.5 -78.5t-71.5 -29.5t-72 29.5t-29 78.5zM223 406v1034h123v-1034h-123z" />
<glyph unicode="&#x22;" horiz-adv-x="831" d="M172 1440h135l-16 -512h-105zM524 1440h135l-16 -512h-105z" />
<glyph unicode="#" horiz-adv-x="1187" d="M49 401l19 101h200l86 436h-223l19 100h225l76 375h108l-76 -375h348l76 375h109l-76 -375h199l-19 -100h-200l-86 -436h223l-19 -101h-223l-78 -401h-108l80 401h-353l-77 -401h-109l78 401h-199zM377 502h350l84 436h-348z" />
<glyph unicode="$" d="M131 113l53 100q25 -16 62 -35.5t86 -38t108.5 -32t130.5 -15.5v580q-84 31 -153.5 61.5t-121.5 71.5t-81 99.5t-29 144.5q0 168 99.5 266t285.5 115v188h97v-188q57 0 114.5 -11.5t106.5 -27t87 -34t58 -32.5l-49 -100q-51 33 -135 62.5t-182 33.5v-551l69 -25 q150 -53 233 -138t83 -228q0 -158 -95.5 -264.5t-289.5 -128.5v-209h-97v205q-88 2 -158.5 16t-125 34.5t-93 42t-63.5 38.5zM311 1057q0 -98 59.5 -152.5t200.5 -103.5v520q-135 -16 -197.5 -81.5t-62.5 -182.5zM668 96q117 12 188.5 79t71.5 196q0 113 -64.5 170 t-195.5 100v-545z" />
<glyph unicode="%" horiz-adv-x="1837" d="M127 1028q0 199 78 305.5t221 106.5q147 0 220 -106.5t73 -305.5q0 -205 -77 -306t-218 -101q-297 0 -297 407zM233 1028q0 -170 50.5 -240.5t140.5 -70.5t138 70.5t48 240.5q0 90 -12 150.5t-36.5 97.5t-59.5 52t-78 15q-41 0 -76 -15t-60.5 -52t-40 -97.5t-14.5 -150.5 zM473 0l770 1413h119l-768 -1413h-121zM1118 383q0 199 78 304.5t221 105.5q147 0 220 -105.5t73 -304.5q0 -205 -78 -307.5t-215 -102.5q-299 0 -299 410zM1227 383q0 -172 49 -242.5t141 -70.5q88 0 137.5 71.5t49.5 241.5q0 178 -49.5 245.5t-137.5 67.5q-43 0 -77.5 -15 t-59.5 -51t-39 -96.5t-14 -150.5z" />
<glyph unicode="&#x26;" horiz-adv-x="1411" d="M135 373q0 160 88 261t242 171q-25 29 -51.5 64.5t-50 76.5t-39 88t-15.5 99q0 74 24.5 136t71 107t111 71t146.5 26q70 0 129 -21.5t103 -60.5t68.5 -96.5t24.5 -127.5q0 -76 -25.5 -133t-71.5 -102t-110.5 -82t-140.5 -74l416 -487q25 20 51.5 53t52 72t48 78.5 t38.5 74.5l96 -49q-41 -88 -95 -169t-118 -144l175 -205h-152l-111 133q-78 -66 -193.5 -113t-250.5 -47q-115 0 -201 30t-144 83t-87 127t-29 160zM260 379q0 -147 88 -222t254 -75q55 0 107.5 11t100.5 30.5t88 43t69 48.5l-435 508q-55 -23 -105 -53.5t-87 -71.5 t-58.5 -95t-21.5 -124zM426 1130q0 -78 46 -147.5t99 -128.5q57 27 111.5 54.5t96.5 62.5t67.5 81t25.5 111q0 100 -58 154.5t-157 54.5q-111 0 -171 -68.5t-60 -173.5z" />
<glyph unicode="'" horiz-adv-x="479" d="M172 1440h135l-16 -512h-105z" />
<glyph unicode="(" horiz-adv-x="577" d="M160 670q0 160 21.5 297t52 247.5t65.5 192.5t61 129h109q-31 -63 -64.5 -152.5t-61.5 -199t-45 -239.5t-17 -275t17 -275.5t45 -241t61.5 -199.5t64.5 -151h-109q-27 47 -61.5 129t-65 193t-52 248t-21.5 297z" />
<glyph unicode=")" horiz-adv-x="575" d="M111 -197q31 63 63.5 151.5t60 199t45 240.5t17.5 276q0 145 -17.5 275t-45 240.5t-60.5 200t-63 150.5h106q27 -47 61.5 -129t66.5 -192.5t53.5 -248t21.5 -296.5q0 -160 -21.5 -297t-53.5 -248t-66.5 -193t-61.5 -129h-106z" />
<glyph unicode="*" horiz-adv-x="866" d="M86 1235l43 108l264 -112l-14 305h117l-11 -305l265 123l38 -109l-274 -98l205 -240l-92 -67l-189 254l-186 -254l-92 71l198 234z" />
<glyph unicode="+" d="M154 651v111h395v424h115v-424h395v-111h-395v-424h-115v424h-395z" />
<glyph unicode="," horiz-adv-x="520" d="M92 -283q59 66 94 135.5t43 133.5q-27 6 -51 29.5t-24 70.5q0 53 29.5 83t70.5 30q49 0 74.5 -33t25.5 -86q0 -92 -49 -204t-153 -210z" />
<glyph unicode="-" horiz-adv-x="864" d="M137 516v117h588v-117h-588z" />
<glyph unicode="." horiz-adv-x="514" d="M158 88q0 49 28.5 80t71.5 31t71.5 -30t28.5 -81q0 -49 -29.5 -77.5t-72.5 -28.5t-70.5 28.5t-27.5 77.5z" />
<glyph unicode="/" horiz-adv-x="849" d="M47 -96l639 1632h117l-639 -1632h-117z" />
<glyph unicode="0" d="M125 702q0 365 121 548.5t362 183.5q248 0 363.5 -183.5t115.5 -548.5q0 -369 -121.5 -549t-357.5 -180q-483 0 -483 729zM254 702q0 -166 23.5 -283.5t68.5 -191t110.5 -107.5t149.5 -34t149.5 35t110.5 109.5t68.5 191.5t23.5 280q0 170 -24.5 288t-69.5 190.5 t-110.5 105.5t-147.5 33t-147.5 -33t-110.5 -105.5t-69.5 -190.5t-24.5 -288z" />
<glyph unicode="1" d="M211 1124l461 289h106v-1413h-125v1268l-393 -238z" />
<glyph unicode="2" d="M186 1239q25 31 61 64.5t86 63.5t114.5 48.5t144.5 18.5q104 0 177 -31t119 -81t67.5 -115.5t21.5 -133.5q0 -76 -26.5 -139.5t-70.5 -118.5t-101.5 -103t-116.5 -94q-80 -63 -142.5 -119.5t-105.5 -115.5t-65.5 -124.5t-22.5 -145.5h675v-113h-804v35q0 111 22.5 196.5 t68.5 161.5t115.5 144.5t163.5 142.5q68 55 121 100t89 90t55.5 91.5t19.5 105.5q0 111 -64.5 182.5t-209.5 71.5q-61 0 -109.5 -14.5t-87.5 -36t-66.5 -48t-48.5 -53.5z" />
<glyph unicode="3" d="M170 33l29 102q35 -14 108.5 -29.5t173.5 -15.5q168 0 268.5 74t100.5 221q0 61 -21.5 112.5t-64.5 89.5t-109.5 59.5t-156.5 21.5h-111v110h105q86 0 149.5 22.5t103 60.5t59 89t19.5 111q0 55 -15 102t-49 83t-88.5 56.5t-129.5 20.5q-113 0 -182.5 -37t-108.5 -76 l-66 76q20 23 53 49.5t79 48t103.5 36t127.5 14.5q104 0 180 -29t124 -78t71.5 -112.5t23.5 -133.5q0 -135 -69.5 -226t-194.5 -124q147 -29 219 -119t72 -225q0 -98 -37 -175t-101.5 -129t-152.5 -79t-190 -27q-111 0 -196 18.5t-126 37.5z" />
<glyph unicode="4" d="M143 346v86l529 981h133l-514 -956h444v420h121v-420h225v-111h-225v-346h-121v346h-592z" />
<glyph unicode="5" d="M207 33l29 102q35 -14 108.5 -29.5t173.5 -15.5q174 0 273.5 89t99.5 263q0 66 -15.5 125.5t-50 103.5t-91 69.5t-138.5 25.5q-92 0 -152.5 -19.5t-97.5 -39.5l-67 49l77 651h613v-113h-523l-57 -467q35 18 96.5 29.5t128.5 11.5q86 0 160 -25.5t128 -78.5t84 -133 t30 -187q0 -96 -33 -181t-95.5 -148.5t-153.5 -100.5t-208 -37q-111 0 -194.5 18.5t-124.5 37.5z" />
<glyph unicode="6" d="M188 610q0 408 142.5 619t406.5 211q88 0 156 -18.5t125 -47.5l-41 -98q-45 23 -101.5 39t-142.5 16q-100 0 -176 -45t-127 -124t-78.5 -186.5t-32.5 -232.5q51 76 140.5 128.5t206.5 52.5q86 0 160.5 -29t131 -87t88 -144t31.5 -199q0 -111 -30.5 -202t-88 -155.5 t-138.5 -99.5t-181 -35q-223 0 -337 158t-114 479zM324 489q0 -92 21.5 -166.5t62.5 -128t99 -83t132 -29.5q147 0 229 95t82 276q0 180 -81 270t-218 90q-66 0 -124 -24.5t-104 -67.5t-72.5 -102.5t-26.5 -129.5z" />
<glyph unicode="7" d="M168 1298v115h852v-94l-533 -1319h-135l533 1298h-717z" />
<glyph unicode="8" d="M162 330q0 156 81 247t228 154q-125 53 -198.5 133t-73.5 215q0 76 28.5 141.5t81.5 114.5t130 77t173 28q102 0 178 -27t127.5 -74t76 -110.5t24.5 -136.5q0 -125 -76.5 -214.5t-187.5 -142.5q131 -57 212 -145t81 -232q0 -82 -29 -151.5t-85 -121.5t-139 -82t-190 -30 q-115 0 -198.5 29t-138 78t-80 113.5t-25.5 136.5zM285 350q0 -131 86 -200.5t235 -69.5q143 0 229.5 69.5t86.5 210.5q0 68 -25 119t-68 90t-103 67t-134 48q-147 -55 -227 -135t-80 -199zM319 1075q0 -61 26 -108t69 -83t100.5 -61t118.5 -43q117 41 189.5 120t72.5 190 t-70.5 178t-212.5 67q-74 0 -129 -20.5t-91 -56t-54.5 -83t-18.5 -100.5z" />
<glyph unicode="9" d="M152 948q0 111 30.5 202t87 155.5t137 99.5t181.5 35q223 0 337.5 -155t114.5 -472q0 -420 -138 -630t-410 -210q-88 0 -163 14.5t-122 37.5l26 100q41 -16 102.5 -29.5t147.5 -13.5q104 0 182 42t130.5 118.5t81 186.5t34.5 243q-51 -74 -143 -128.5t-205 -54.5 q-86 0 -160.5 29t-131 87.5t-88 143.5t-31.5 199zM279 961q0 -180 80.5 -270.5t215.5 -90.5q66 0 125.5 23.5t105.5 66.5t72.5 102.5t26.5 131.5q0 205 -84 306t-233 101q-143 0 -226 -95t-83 -275z" />
<glyph unicode=":" horiz-adv-x="514" d="M158 86q0 49 28.5 80t71.5 31t71.5 -30t28.5 -81q0 -49 -29.5 -77.5t-72.5 -28.5t-70.5 28.5t-27.5 77.5zM158 907q0 49 28.5 80t71.5 31t71.5 -30t28.5 -81q0 -49 -29.5 -77.5t-72.5 -28.5t-70.5 28.5t-27.5 77.5z" />
<glyph unicode=";" horiz-adv-x="520" d="M92 -283q59 66 94 135.5t43 133.5q-27 6 -51 29.5t-24 70.5q0 53 29.5 83t70.5 30q49 0 74.5 -33t25.5 -86q0 -92 -49 -204t-153 -210zM158 907q0 49 28.5 80t71.5 31t71.5 -30t28.5 -81q0 -49 -29.5 -77.5t-72.5 -28.5t-70.5 28.5t-27.5 77.5z" />
<glyph unicode="&#x3c;" d="M219 666v104l729 377l45 -100l-653 -326l653 -330l-43 -100z" />
<glyph unicode="=" d="M188 438v111h836v-111h-836zM188 862v109h836v-109h-836z" />
<glyph unicode="&#x3e;" d="M219 391l653 326l-653 330l43 100l731 -377v-104l-729 -375z" />
<glyph unicode="?" horiz-adv-x="1118" d="M102 1257q27 33 68 71t96.5 71t127 53.5t161.5 20.5q102 0 178 -30t126 -81t74.5 -118.5t24.5 -143.5q0 -68 -17 -122t-45 -98t-62.5 -80t-69.5 -67q-43 -37 -78 -70.5t-59.5 -73.5t-39 -90t-14.5 -120h-116q0 78 12 135t39 105.5t68.5 92.5t101.5 97q23 20 50.5 48 t51 63.5t39 77.5t15.5 92q0 123 -72 196.5t-221 73.5q-123 0 -214 -52.5t-151 -125.5zM422 90q0 49 28.5 79t71.5 30t72 -29t29 -80q0 -49 -29 -78.5t-72 -29.5t-71.5 29.5t-28.5 78.5z" />
<glyph unicode="@" horiz-adv-x="2066" d="M152 453q0 225 73.5 418.5t203.5 335t310.5 221t395.5 79.5q197 0 349 -53t256.5 -151.5t159 -239.5t54.5 -318q0 -170 -46 -303t-119 -225t-164 -140t-183 -48q-49 0 -82 9t-55.5 22.5t-37 32t-24.5 36.5q-14 -12 -39.5 -28.5t-59.5 -33t-75 -27.5t-84 -11 q-76 0 -140.5 24.5t-111.5 72.5t-73.5 119.5t-26.5 166.5q0 137 37 247.5t100.5 188.5t146 120t175.5 42q72 0 122 -18.5t82.5 -43t50 -50.5t23.5 -38l33 123h92l-147 -758q-2 -6 -2 -24q0 -78 104 -78q76 0 146.5 45t125 127t87 195.5t32.5 252.5q0 172 -54 296t-149.5 205 t-225.5 120t-279 39q-184 0 -342 -69.5t-274 -194.5t-181.5 -300t-65.5 -384q0 -182 52.5 -330t155 -252t253 -160.5t346.5 -56.5q131 0 238.5 22.5t194.5 57.5t156 78t122 86l61 -84q-57 -49 -138 -96.5t-179 -85t-213 -60.5t-240 -23q-209 0 -380 59.5t-292.5 174.5 t-188 283t-66.5 385zM752 412q0 -147 67.5 -218t186.5 -71q41 0 77.5 11t67.5 27.5t53.5 35t34.5 32.5l49 265q2 18 7 45.5t10.5 56.5t9.5 54.5t4 39.5q0 45 -15.5 85t-45 71t-72.5 49t-101 18q-68 0 -128 -31.5t-106 -94t-72.5 -156.5t-26.5 -219z" />
<glyph unicode="A" horiz-adv-x="1185" d="M39 0l481 1440h144l483 -1440h-133l-131 401h-592l-129 -401h-123zM326 514h520l-258 778z" />
<glyph unicode="B" horiz-adv-x="1226" d="M188 0v1440h404q113 0 193.5 -30t132 -79t76 -114.5t24.5 -139.5q0 -70 -20.5 -124t-52.5 -94t-69.5 -65.5t-70.5 -37.5q51 -12 102 -40t92 -71t68 -104.5t27 -141.5q0 -178 -115 -288.5t-361 -110.5h-430zM313 115h322q176 0 252 75.5t76 210.5q0 141 -97.5 213 t-277.5 72h-275v-571zM313 799h256q172 0 247 77.5t75 200.5q0 70 -26.5 118t-69.5 76.5t-99.5 41t-117.5 12.5h-265v-526z" />
<glyph unicode="C" horiz-adv-x="1275" d="M139 713q0 168 38 306t115 236.5t192.5 152.5t271.5 54q84 0 153.5 -16t122.5 -40t91 -49.5t61 -45.5l-66 -92q-51 43 -139 87t-219 44q-233 0 -359.5 -160t-126.5 -477q0 -324 127 -472.5t359 -148.5q68 0 124 12.5t103 31t84 41t64 42.5l59 -92q-70 -59 -182.5 -104.5 t-259.5 -45.5q-313 0 -463 190.5t-150 545.5z" />
<glyph unicode="D" horiz-adv-x="1396" d="M188 0v1440h428q313 0 476 -187.5t163 -533.5q0 -174 -44 -308.5t-127 -225.5t-201.5 -138t-266.5 -47h-428zM317 119h299q233 0 369.5 153.5t136.5 448.5q0 309 -136 454.5t-370 145.5h-299v-1202z" />
<glyph unicode="E" horiz-adv-x="1069" d="M188 0v1440h795v-119h-666v-512h521v-119h-521v-571h687v-119h-816z" />
<glyph unicode="F" horiz-adv-x="1069" d="M188 0v1440h801v-119h-672v-512h547v-119h-547v-690h-129z" />
<glyph unicode="G" horiz-adv-x="1335" d="M137 713q0 164 38 303t115 240.5t191.5 159t268.5 57.5q141 0 244.5 -36t189.5 -104l-62 -94q-27 18 -59.5 39.5t-76.5 39t-101.5 30t-130.5 12.5q-109 0 -198 -40t-151.5 -121t-97.5 -203t-35 -283q0 -328 128 -476.5t380 -148.5q98 0 175 15.5t124 33.5v479h-307v115 h426v-665q-18 -10 -55 -26.5t-92.5 -32t-127 -27t-159.5 -11.5q-317 0 -472 187.5t-155 556.5z" />
<glyph unicode="H" horiz-adv-x="1366" d="M188 0v1440h129v-611h732v611h129v-1440h-129v709h-732v-709h-129z" />
<glyph unicode="I" horiz-adv-x="505" d="M188 0v1440h129v-1440h-129z" />
<glyph unicode="J" horiz-adv-x="968" d="M55 63l49 101q8 -4 34 -17.5t65 -28t87 -25.5t101 -11q70 0 122 15.5t85 51t49.5 95t16.5 147.5v1049h129v-1065q0 -219 -101.5 -313.5t-281.5 -94.5q-76 0 -137.5 12.5t-107.5 30t-74 32.5t-36 21z" />
<glyph unicode="K" horiz-adv-x="1132" d="M188 0v1440h129v-664l601 664h151l-600 -666l649 -774h-166l-635 754v-754h-129z" />
<glyph unicode="L" horiz-adv-x="1060" d="M188 0v1440h129v-1321h666v-119h-795z" />
<glyph unicode="M" horiz-adv-x="1583" d="M188 0v1440h136l467 -856l464 856h140v-1440h-127v1239l-430 -788h-105l-418 763v-1214h-127z" />
<glyph unicode="N" horiz-adv-x="1351" d="M188 0v1440h136l714 -1221v1221h125v-1440h-125l-725 1227v-1227h-125z" />
<glyph unicode="O" horiz-adv-x="1503" d="M141 721q0 168 40 306t118 236.5t192.5 152.5t262.5 54q147 0 260.5 -54t190.5 -152.5t117 -236.5t40 -306t-40 -306.5t-117 -237.5t-191.5 -153.5t-261.5 -54.5t-262 54.5t-192 153.5t-117 237.5t-40 306.5zM276 721q0 -143 29 -259t88.5 -199t148.5 -128t210 -45 t210 45t148 128t88 199t29 259t-29 259t-88 198t-148.5 127t-209.5 45q-121 0 -210 -45t-148.5 -127t-88.5 -198t-29 -259z" />
<glyph unicode="P" horiz-adv-x="1159" d="M188 0v1440h402q119 0 205 -35t142 -94.5t83 -139t27 -172.5q0 -86 -27 -164.5t-85 -139t-148.5 -96.5t-215.5 -36h-256v-563h-127zM315 680h252q172 0 261.5 80t89.5 239q0 172 -88.5 249t-243.5 77h-271v-645z" />
<glyph unicode="Q" horiz-adv-x="1503" d="M141 721q0 168 40 306t117 236.5t191.5 152.5t262.5 54q147 0 261.5 -54t191.5 -152.5t117 -236.5t40 -306q0 -260 -95.5 -446.5t-275.5 -260.5q53 -76 155.5 -129t217.5 -69l-25 -105q-68 8 -137 33t-132.5 61.5t-117 80.5t-90.5 94q-25 -4 -50.5 -6.5t-53.5 -2.5 q-160 0 -276.5 58.5t-191.5 160t-112 237.5t-37 294zM276 721q0 -143 29 -259t88.5 -199t148.5 -128t210 -45t210 45t148 128t88 199t29 259t-29 259t-88 198t-148.5 127t-209.5 45q-121 0 -210 -45t-148.5 -127t-88.5 -198t-29 -259z" />
<glyph unicode="R" horiz-adv-x="1181" d="M188 0v1440h379q129 0 216 -37t140.5 -97.5t77 -135t23.5 -150.5q0 -80 -22.5 -145.5t-61.5 -114.5t-91 -84t-110 -55l369 -621h-150l-352 592h-291v-592h-127zM315 705h246q174 0 255 83.5t81 225.5q0 143 -81 227t-263 84h-238v-620z" />
<glyph unicode="S" horiz-adv-x="1142" d="M94 96l53 107q27 -18 68 -38t92 -37t114.5 -28.5t137.5 -11.5q154 0 245 66.5t91 207.5q0 104 -59.5 173t-200.5 114l-129 41q-174 53 -265 146.5t-91 234.5q0 84 27.5 158t84.5 129t143.5 87t202.5 32q55 0 112.5 -8.5t110 -22.5t98.5 -33.5t77 -40.5l-50 -106 q-47 31 -140 61.5t-216 30.5q-156 0 -237.5 -70.5t-81.5 -200.5q0 -49 13 -87.5t44 -70.5t82 -59.5t127 -54.5l147 -51q178 -61 256 -152.5t78 -238.5q0 -84 -29.5 -158t-88 -128t-147.5 -86t-206 -32q-88 0 -164 14.5t-136 35t-102 42t-61 35.5z" />
<glyph unicode="T" horiz-adv-x="1157" d="M72 1319v121h1011v-121h-440v-1319h-129v1319h-442z" />
<glyph unicode="U" horiz-adv-x="1339" d="M168 565v875h129v-846q0 -145 22.5 -243.5t68.5 -157t115.5 -83t166.5 -24.5q94 0 163.5 24.5t115.5 83t69.5 155.5t23.5 243v848h129v-877q0 -131 -23.5 -240.5t-81.5 -188.5t-155.5 -123t-244.5 -44t-242.5 44t-153 124t-80 189.5t-22.5 240.5z" />
<glyph unicode="V" horiz-adv-x="1165" d="M35 1440h139l414 -1260l407 1260h133l-481 -1440h-123z" />
<glyph unicode="W" horiz-adv-x="1572" d="M31 1440h133l260 -1247l299 1212h127l291 -1210l270 1245h131l-328 -1440h-143l-287 1198l-301 -1198h-141z" />
<glyph unicode="X" horiz-adv-x="1224" d="M68 0l473 764l-406 676h150l331 -568l351 568h141l-416 -672l461 -768h-152l-389 653l-397 -653h-147z" />
<glyph unicode="Y" horiz-adv-x="1114" d="M35 1440h147l375 -688l383 688h139l-463 -807v-633h-129v629z" />
<glyph unicode="Z" horiz-adv-x="1185" d="M102 0v102l807 1219h-786v119h944v-103l-809 -1218h834v-119h-990z" />
<glyph unicode="[" horiz-adv-x="698" d="M190 -209v1745h420v-109h-299v-1527h299v-109h-420z" />
<glyph unicode="\" horiz-adv-x="849" d="M47 1536h117l639 -1632h-117z" />
<glyph unicode="]" horiz-adv-x="827" d="M98 -100h299v1527h-299v109h420v-1745h-420v109z" />
<glyph unicode="^" d="M168 647l389 766h105l382 -766h-122l-314 643l-319 -643h-121z" />
<glyph unicode="_" horiz-adv-x="913" d="M0 -268h913v-113h-913v113z" />
<glyph unicode="`" horiz-adv-x="1052" d="M272 1419l58 115l450 -242l-45 -88z" />
<glyph unicode="a" horiz-adv-x="1060" d="M104 281q0 147 94.5 240t284.5 93q45 0 92.5 -4t87 -8t70.5 -9t47 -7v100q0 135 -75.5 191.5t-217.5 56.5q-104 0 -170.5 -23.5t-109.5 -46.5l-39 90q39 23 127 54.5t223 31.5q180 0 278.5 -85t98.5 -259v-696h-109l-4 156q-61 -102 -160.5 -141.5t-203.5 -39.5 q-53 0 -109.5 15.5t-101.5 50.5t-74 94.5t-29 145.5zM221 283q0 -106 66.5 -157.5t177.5 -51.5q63 0 120.5 23.5t100.5 61.5t68.5 87t25.5 100v146q-16 4 -45.5 9t-68.5 9t-84 7t-88 3q-152 0 -212.5 -63.5t-60.5 -173.5z" />
<glyph unicode="b" horiz-adv-x="1185" d="M166 0v1536h121v-713q45 92 135 155.5t219 63.5q104 0 182 -39.5t130.5 -109.5t79 -167t26.5 -210q0 -150 -39 -251t-101.5 -163.5t-141.5 -89t-156 -26.5q-123 0 -206 43t-136 114q0 -37 -1.5 -71.5t-1.5 -71.5h-110zM287 264q16 -25 44.5 -53.5t67.5 -54t88.5 -43 t104.5 -17.5q160 0 251 98.5t91 321.5q0 90 -18.5 167t-55.5 132t-95 86t-138 31q-68 0 -129.5 -30t-108.5 -86t-74.5 -137t-27.5 -183v-232z" />
<glyph unicode="c" horiz-adv-x="962" d="M127 508q0 119 31.5 217t91 169t143.5 109.5t191 38.5q66 0 115 -11t85.5 -26.5t62 -32t42.5 -28.5l-55 -90q-14 8 -37 21.5t-53.5 25.5t-69.5 20.5t-84 8.5q-147 0 -242.5 -103.5t-95.5 -316.5q0 -109 25.5 -188.5t69.5 -131t106.5 -76t136.5 -24.5q94 0 153.5 19.5 t96.5 37.5l45 -90q-29 -23 -101.5 -51.5t-201.5 -28.5q-217 0 -336 136.5t-119 394.5z" />
<glyph unicode="d" horiz-adv-x="1185" d="M129 508q0 111 28.5 208t82 169.5t131.5 114.5t176 42q129 0 219 -60t137 -159v713h121v-1536h-113l-2 143q-59 -70 -145 -113.5t-209 -43.5q-80 0 -156.5 25.5t-137 86t-96.5 160.5t-36 250zM254 508q0 -111 23.5 -189.5t68.5 -128t108.5 -72t143.5 -22.5 q55 0 103.5 16.5t87 41t68.5 54.5t46 54v227q0 102 -27.5 184.5t-74.5 139.5t-108.5 88t-129.5 31q-80 0 -138 -33t-96 -89t-56.5 -134t-18.5 -168z" />
<glyph unicode="e" horiz-adv-x="1116" d="M127 508q0 121 30.5 220t88 169t140.5 107.5t187 37.5q98 0 176 -29.5t132.5 -96t83 -170t28.5 -250.5v-21h-745q10 -182 101 -284.5t280 -102.5q98 0 161.5 19.5t102.5 35.5l35 -94q-31 -20 -113 -46t-199 -26q-248 0 -368.5 137.5t-120.5 393.5zM250 573h622 q-12 174 -81.5 267.5t-219.5 93.5q-154 0 -229.5 -93t-91.5 -268z" />
<glyph unicode="f" horiz-adv-x="749" d="M70 909v107h200v110q0 94 17.5 172t59.5 134.5t108.5 87t165.5 30.5q53 0 97 -7t66 -13l-16 -100q-16 4 -50 8t-69 4q-76 0 -125 -18.5t-78.5 -59.5t-41 -105.5t-11.5 -158.5v-84h314v-107h-314v-909h-123v909h-200z" />
<glyph unicode="g" horiz-adv-x="1110" d="M88 -203q0 86 40 147.5t99 108.5q-39 20 -65.5 59.5t-26.5 98.5q0 68 37 123t82 92q-53 43 -84 105.5t-31 150.5q0 94 38 161.5t98.5 111.5t134 65.5t145.5 21.5q41 0 74 -4t60.5 -9t53 -9t54.5 -4h276v-96h-57q-31 0 -81 2t-83 8q57 -39 90 -106.5t33 -143.5 q0 -94 -39 -160.5t-98.5 -109.5t-132 -62.5t-142.5 -19.5q-66 0 -127 11t-117 42q-29 -25 -52 -59.5t-23 -77.5q0 -35 10 -59.5t36.5 -41t72 -24.5t116.5 -10l226 -5q68 -2 129 -14t109 -39.5t76 -75t28 -118.5q0 -68 -33 -128.5t-100.5 -105.5t-169 -71.5t-236.5 -26.5 q-84 0 -160 13t-133 46t-92 84t-35 129zM203 -178q0 -59 25.5 -97t68.5 -61.5t98.5 -33t116.5 -9.5q94 0 171 15.5t130 45t83 69.5t30 89q0 31 -8.5 59.5t-32 50t-65.5 36t-107 16.5l-203 4q-45 2 -97.5 3t-101.5 14q-35 -27 -71.5 -78t-36.5 -123zM258 684q0 -74 25.5 -124 t67.5 -80.5t95.5 -44t110.5 -13.5q55 0 109.5 13.5t96.5 44t67.5 80.5t25.5 124t-25.5 124t-66.5 81t-95.5 44t-109.5 13q-57 0 -111.5 -14t-96.5 -45t-67.5 -81t-25.5 -122z" />
<glyph unicode="h" horiz-adv-x="1150" d="M166 0v1536h121v-715q47 98 137 159.5t225 61.5q166 0 255 -96t89 -282v-664h-121v647q0 80 -19 135.5t-53 88t-80 47t-102 14.5q-78 0 -139 -36t-104 -93.5t-65.5 -131t-22.5 -149.5v-522h-121z" />
<glyph unicode="i" horiz-adv-x="468" d="M141 1356q0 45 26 72.5t66 27.5q41 0 68 -27.5t27 -72.5q0 -47 -27 -74t-68 -27t-66.5 28t-25.5 73zM174 0v1016h121v-1016h-121z" />
<glyph unicode="j" horiz-adv-x="468" d="M-172 -440l14 102q20 -4 48 -8t55 -4q74 0 119 21.5t69.5 66.5t32.5 113.5t8 162.5v1002h121v-1045q0 -217 -80 -323.5t-260 -106.5q-29 0 -67 5t-60 14zM141 1356q0 45 26 72.5t66 27.5q41 0 68 -27.5t27 -72.5q0 -47 -27 -74t-68 -27t-66.5 28t-25.5 73z" />
<glyph unicode="k" horiz-adv-x="944" d="M166 0v1536h121v-977l434 457h145l-442 -457l483 -559h-155l-465 545v-545h-121z" />
<glyph unicode="l" horiz-adv-x="454" d="M166 0v1536h123v-1536h-123z" />
<glyph unicode="m" horiz-adv-x="1763" d="M166 0v1016h113l4 -201q47 98 133 162.5t215 64.5q106 0 188 -58t105 -179q49 104 140 170.5t220 66.5q160 0 241 -96t81 -282v-664h-121v649q0 160 -58.5 221.5t-169.5 61.5q-74 0 -131 -34t-97 -89t-61.5 -125t-21.5 -141v-543h-121v649q0 160 -58 221.5t-169 61.5 q-72 0 -129 -37t-98 -95.5t-62.5 -131t-21.5 -146.5v-522h-121z" />
<glyph unicode="n" horiz-adv-x="1150" d="M166 0v1016h113l4 -201q47 98 138 162.5t220 64.5q178 0 265 -96t87 -282v-664h-121v647q0 80 -19 135.5t-53 88t-80 47t-102 14.5q-78 0 -139 -36t-104 -93.5t-65.5 -131t-22.5 -149.5v-522h-121z" />
<glyph unicode="o" horiz-adv-x="1189" d="M127 510q0 117 30.5 214t89 168t145.5 110.5t202 39.5q117 0 204 -39.5t145 -110.5t88 -168t30 -214t-31 -215t-89 -169t-146 -110t-201 -39q-115 0 -203 39t-146.5 110t-88 169t-29.5 215zM252 510q0 -197 84 -309.5t258 -112.5q176 0 260 113.5t84 308.5q0 190 -85 306 t-259 116q-172 0 -257 -116t-85 -306z" />
<glyph unicode="p" horiz-adv-x="1185" d="M166 -451v1467h113l4 -201q43 92 134 159.5t226 67.5q104 0 182 -39.5t130.5 -109.5t78 -165t25.5 -206q0 -150 -40 -252t-103.5 -165.5t-142.5 -91t-159 -27.5q-100 0 -183 34.5t-144 83.5v-555h-121zM287 229q18 -18 50 -41.5t72 -44t87 -35t96 -14.5q158 0 250 101.5 t92 326.5q0 88 -18.5 163t-56.5 130t-95 86t-137 31t-143.5 -36t-106.5 -96.5t-66.5 -137t-23.5 -156.5v-277z" />
<glyph unicode="q" horiz-adv-x="1185" d="M127 508q0 111 27.5 208t81 169.5t133.5 114.5t182 42q70 0 127 -19t100 -50t74 -70t49 -78l6 191h115v-1467h-121v588q-18 -23 -49 -49.5t-75 -49t-100 -37.5t-124 -15q-82 0 -159 26.5t-136 87t-95 160.5t-36 248zM252 508q0 -111 24.5 -189.5t68.5 -128t105.5 -73 t135.5 -23.5q113 0 189.5 52.5t125.5 113.5v229q0 90 -25.5 171t-70.5 141.5t-107.5 95.5t-136.5 35q-147 0 -228 -112.5t-81 -311.5z" />
<glyph unicode="r" horiz-adv-x="765" d="M172 0v1016h113l4 -234q20 49 53 94.5t78 78t100 52t123 19.5q23 0 49.5 -2t34.5 -6l-10 -111q-16 4 -39 5t-43 1q-74 0 -137.5 -31.5t-108.5 -90t-70.5 -141.5t-25.5 -187v-463h-121z" />
<glyph unicode="s" horiz-adv-x="950" d="M96 70l43 94q51 -29 134 -55.5t200 -26.5q76 0 127 13.5t82 38t43 57t12 71.5q0 74 -45 121t-172 70l-110 20q-66 12 -119 31.5t-93 51.5t-61.5 78t-21.5 114q0 141 104.5 217.5t272.5 76.5q104 0 186 -22.5t131 -48.5l-43 -94q-45 23 -110.5 41t-157.5 18 q-141 0 -205 -44t-64 -130q0 -39 11.5 -67.5t37 -50t69.5 -37t110 -27.5l112 -21q61 -12 113.5 -33.5t90.5 -55.5t59.5 -80t21.5 -109q0 -141 -99.5 -222.5t-279.5 -81.5q-127 0 -229.5 31t-149.5 62z" />
<glyph unicode="t" horiz-adv-x="804" d="M70 909v107h211v299l120 33v-332h310v-107h-310v-592q0 -70 14.5 -112.5t43 -67t70.5 -33t96 -8.5q63 0 96 8l12 -98q-20 -6 -61 -12t-90 -6q-164 0 -232.5 77.5t-68.5 217.5v626h-211z" />
<glyph unicode="u" horiz-adv-x="1157" d="M166 352v664h121v-647q0 -80 18.5 -134.5t52 -87t79.5 -47t102 -14.5q78 0 139 35t104 92t65.5 130t22.5 151v522h121v-1016h-112l-5 197q-49 -98 -138 -160t-230 -62q-340 0 -340 377z" />
<glyph unicode="v" horiz-adv-x="991" d="M45 1016h133l322 -893l317 893h127l-383 -1016h-131z" />
<glyph unicode="w" horiz-adv-x="1400" d="M45 1016h129l250 -881l219 850h125l219 -850l248 881h121l-305 -1016h-131l-218 836l-219 -836h-131z" />
<glyph unicode="x" horiz-adv-x="974" d="M51 0l361 528l-332 488h139l266 -398l267 398h129l-330 -477l371 -539h-142l-305 446l-293 -446h-131z" />
<glyph unicode="y" horiz-adv-x="1003" d="M45 1016h135l324 -830l330 830h124l-612 -1467h-119l211 500z" />
<glyph unicode="z" horiz-adv-x="987" d="M115 0v84l608 838h-600v104h751v-86l-610 -838h617v-102h-766z" />
<glyph unicode="{" horiz-adv-x="690" d="M119 602v121q41 8 69.5 29.5t46 50t24.5 63.5t7 72v256q0 156 77 249t261 93v-104q-127 0 -173 -62.5t-46 -200.5v-237q0 -92 -40 -163t-103 -103q63 -29 103 -93.5t40 -171.5v-243q0 -129 45 -196.5t174 -67.5v-103q-98 0 -163.5 26.5t-104.5 74t-54.5 113t-15.5 145.5 v239q0 72 -32.5 134.5t-114.5 78.5z" />
<glyph unicode="|" horiz-adv-x="512" d="M199 -451v1987h114v-1987h-114z" />
<glyph unicode="}" horiz-adv-x="690" d="M86 -106q129 0 174 67.5t45 196.5v243q0 106 39 170t105 93q-66 33 -105 104.5t-39 163.5v237q0 137 -46 200t-173 63v104q184 0 261 -93t77 -249v-256q0 -37 7 -72t24.5 -63.5t45 -50t68.5 -29.5v-121q-82 -16 -113.5 -78.5t-31.5 -134.5v-239q0 -80 -15.5 -145.5 t-54.5 -113t-104.5 -74t-163.5 -26.5v103z" />
<glyph unicode="~" d="M98 817q27 27 63 56.5t78 54t90 40t99 15.5q72 0 129 -26.5t105 -55.5q37 -23 77.5 -42t87.5 -19q72 0 120 29.5t100 76.5l65 -74q-55 -59 -124.5 -100t-164.5 -41q-72 0 -129 26.5t-104 55.5q-37 23 -76 42t-90 19q-66 0 -132.5 -38.5t-127.5 -98.5z" />
<glyph unicode="&#xa1;" horiz-adv-x="573" d="M186 932q0 49 29 78.5t72 29.5t71.5 -29.5t28.5 -78.5q0 -51 -28.5 -80t-71.5 -29t-72 30t-29 79zM223 -418v1034h123v-1034h-123z" />
<glyph unicode="&#xa2;" d="M213 705q0 117 31.5 210t88 160.5t134.5 107.5t170 50v207h96v-203q55 -2 103.5 -12.5t86.5 -24.5t65.5 -28.5t41.5 -26.5l-49 -90q-12 8 -37.5 20t-58.5 24.5t-73 21.5t-79 9v-851q88 2 151.5 24.5t98.5 38.5l43 -86q-29 -18 -105.5 -48t-187.5 -36v-199h-96v201 q-94 8 -172 47t-134.5 105.5t-87 162t-30.5 216.5zM334 705q0 -109 23.5 -184t65.5 -124t97 -75.5t117 -36.5v841q-61 -10 -116.5 -37.5t-97.5 -79t-65.5 -126t-23.5 -178.5z" />
<glyph unicode="&#xa3;" d="M176 731v107h160q-6 53 -12.5 112.5t-6.5 93.5q0 88 26 165t80 133.5t136 89t195 32.5q66 0 121 -14t99 -33.5t74.5 -42t47.5 -39.5l-66 -88q-12 12 -37.5 29.5t-61.5 35t-80 30t-95 12.5q-84 0 -143.5 -24.5t-96.5 -67.5t-54.5 -99.5t-17.5 -120.5q0 -41 5.5 -99 t11.5 -105h364v-107h-346q10 -53 15.5 -121.5t5.5 -109.5q0 -72 -17.5 -132.5t-42 -109.5t-51.5 -86t-45 -59h713v-113h-852v96q20 25 49 64t55.5 91t45 116.5t18.5 142.5q0 53 -5.5 112.5t-13.5 108.5h-178z" />
<glyph unicode="&#xa4;" d="M131 301l168 166q-72 96 -72 233t78 240l-174 176l68 70l174 -180q100 76 233 75q137 0 234 -71l174 176l69 -68l-174 -176q78 -96 78 -240q0 -137 -74 -231l168 -170l-65 -68l-170 170q-100 -82 -242 -81q-145 0 -239 79l-168 -168zM334 702q0 -129 74.5 -204.5 t197.5 -75.5q125 0 199 75.5t74 204.5q0 125 -74 203t-199 78q-123 0 -197.5 -78t-74.5 -203z" />
<glyph unicode="&#xa5;" d="M90 1440h148l370 -695l383 695h139l-423 -731h321v-105h-362v-209h362v-104h-362v-291h-123v291h-348v104h348v209h-348v105h305z" />
<glyph unicode="&#xa6;" horiz-adv-x="512" d="M199 221h114v-672h-114v672zM199 866v670h114v-670h-114z" />
<glyph unicode="&#xa7;" horiz-adv-x="1144" d="M180 682q0 82 37 159t109 138q-53 47 -77 103.5t-24 134.5q0 82 30 146t82 108.5t122.5 68t150.5 23.5q63 0 115.5 -10.5t92.5 -23.5t68.5 -28.5t47.5 -27.5l-43 -91l-43 21.5t-60.5 26t-75.5 20.5t-91 8q-59 0 -109.5 -13t-89.5 -42t-60.5 -72t-21.5 -104 q0 -160 190 -236l179 -71q129 -51 194.5 -125t65.5 -197q0 -86 -39 -159.5t-105 -131.5q47 -41 74 -98t27 -143q0 -74 -27 -137.5t-76 -109.5t-120.5 -72t-159.5 -26q-66 0 -119 10.5t-94 25t-70 29.5t-43 24l45 92q37 -20 106.5 -48t174.5 -28q55 0 104 14.5t85 44 t57.5 74.5t21.5 109q0 80 -47 133t-135 88l-189 76q-53 20 -100 47.5t-83 66.5t-56.5 89t-20.5 114zM289 698q0 -86 52 -140t157 -95l151 -62q27 -10 49.5 -21t42.5 -24q18 14 39 37t38.5 51.5t29.5 64.5t12 77q0 86 -55 142t-154 95l-159 64q-49 20 -84 41 q-45 -35 -82 -96.5t-37 -133.5z" />
<glyph unicode="&#xa8;" horiz-adv-x="1009" d="M205 1311q0 47 27.5 74.5t68.5 27.5t67.5 -27.5t26.5 -74.5t-26.5 -75t-67.5 -28t-68.5 28t-27.5 75zM614 1311q0 47 27 74.5t68 27.5t68.5 -27.5t27.5 -74.5t-27.5 -75t-68.5 -28t-68 28t-27 75z" />
<glyph unicode="&#xa9;" horiz-adv-x="1685" d="M98 723q0 162 55.5 299t154 237.5t235.5 157t303 56.5q162 0 299 -56.5t235.5 -157t153.5 -237.5t55 -299q0 -164 -55 -302t-154.5 -237.5t-236.5 -155t-299 -55.5q-164 0 -300 55.5t-235.5 155t-155 237.5t-55.5 302zM201 721q0 -141 48 -261t134 -207t204 -136t257 -49 q137 0 255 49t204 136t134 207t48 261t-48 261t-134 208t-203 137t-254 49q-139 0 -257 -49t-204 -137t-135 -208t-49 -261zM524 719q0 86 24.5 157.5t69 124t109 82t143.5 29.5q51 0 92.5 -9t71 -21.5t47 -23.5t23.5 -18l-39 -71q-16 10 -66.5 31.5t-128.5 21.5 q-113 0 -178 -77t-65 -226q0 -154 64.5 -227.5t176.5 -73.5q86 0 134.5 17.5t64.5 25.5l31 -68q-6 -6 -23.5 -16t-47.5 -20.5t-71 -18.5t-92 -8q-166 0 -253 102.5t-87 286.5z" />
<glyph unicode="&#xaa;" horiz-adv-x="737" d="M113 1020q0 98 68.5 147.5t191.5 49.5q18 0 40.5 -1.5t44 -3.5t39 -3t25.5 -3v43q0 78 -42 112t-128 34q-57 0 -104 -12.5t-74 -28.5l-27 69q27 16 85.5 33t129.5 17q131 0 191.5 -59.5t60.5 -182.5v-391h-79l-7 71q-33 -37 -90 -62.5t-114 -25.5q-92 0 -151.5 46 t-59.5 151zM121 639v82h493v-82h-493zM205 1022q0 -66 34.5 -93.5t96.5 -27.5q37 0 69.5 10.5t59.5 27.5t42 42t15 53v99q-4 0 -18.5 2t-36 3t-46 3t-44.5 2q-80 0 -126 -29t-46 -92z" />
<glyph unicode="&#xab;" horiz-adv-x="960" d="M117 512l235 395h123l-227 -395l227 -395h-123zM486 512l235 395h123l-227 -395l227 -395h-123z" />
<glyph unicode="&#xac;" d="M205 819v107h801v-492h-111v385h-690z" />
<glyph unicode="&#xad;" horiz-adv-x="864" d="M137 516v117h588v-117h-588z" />
<glyph unicode="&#xae;" horiz-adv-x="1685" d="M98 723q0 162 55.5 299t154 237.5t235.5 157t303 56.5q162 0 299 -56.5t235.5 -157t153.5 -237.5t55 -299q0 -164 -55 -302t-154.5 -237.5t-236.5 -155t-299 -55.5q-164 0 -300 55.5t-235.5 155t-155 237.5t-55.5 302zM201 721q0 -139 48 -259t134 -207t204 -137t257 -50 q137 0 255 50t204 138t134 207t48 258t-48 259t-134 208t-203 138t-254 50q-139 0 -257 -50t-204 -138t-135 -208t-49 -259zM594 338v764h256q70 0 120 -18.5t81.5 -50.5t46 -72.5t14.5 -86.5q0 -88 -45 -138t-111 -72l187 -326h-107l-176 303h-168v-303h-98zM692 727h156 q78 0 122 40t44 105q0 66 -37 105t-123 39h-162v-289z" />
<glyph unicode="&#xaf;" horiz-adv-x="1034" d="M227 1257v109h582v-109h-582z" />
<glyph unicode="&#xb0;" horiz-adv-x="815" d="M133 1139q0 55 20.5 103t57.5 85t87 57.5t110 20.5q61 0 111 -19.5t86 -54.5t56.5 -84t20.5 -106t-21.5 -106.5t-58.5 -84.5t-87 -55.5t-107 -20.5q-123 0 -199 74t-76 191zM227 1139q0 -82 51.5 -131.5t131.5 -49.5q76 0 127 48.5t51 134.5q0 78 -51.5 129t-128.5 51 q-80 0 -130.5 -52t-50.5 -130z" />
<glyph unicode="&#xb1;" d="M154 0v109h903v-109h-903zM154 709v110h395v402h115v-402h393v-110h-393v-402h-115v402h-395z" />
<glyph unicode="&#xb2;" horiz-adv-x="868" d="M152 1311q12 18 34.5 40.5t55 42t75.5 33t97 13.5q123 0 189.5 -60.5t66.5 -154.5q0 -45 -17.5 -83t-46 -71t-67.5 -61.5t-82 -55.5q-37 -25 -70 -46t-57.5 -47.5t-40 -57.5t-15.5 -74h408v-90h-516v39q0 59 12 105t40 86t73 77t110 78q72 45 115 88t43 109q0 59 -39 94 t-112 35q-74 0 -121 -34t-74 -63z" />
<glyph unicode="&#xb3;" horiz-adv-x="868" d="M158 1346q35 33 103.5 63.5t160.5 30.5q70 0 118 -17.5t77.5 -45t43 -64.5t13.5 -76q0 -74 -38 -120t-89 -68q61 -20 104 -66.5t43 -128.5q0 -104 -78.5 -167.5t-232.5 -63.5q-72 0 -125 9t-94 21l18 86q33 -10 81 -19t108 -9q117 0 166 40t49 105q0 63 -40 102t-145 39 h-114v86h110q82 0 128 40t46 110q0 59 -43 89t-116 30q-80 0 -131.5 -27t-75.5 -45z" />
<glyph unicode="&#xb4;" horiz-adv-x="1052" d="M272 1292l451 242l57 -115l-465 -215z" />
<glyph unicode="&#xb5;" horiz-adv-x="1150" d="M166 -451v1467h121v-645q0 -78 18.5 -132.5t52 -88t79.5 -49t102 -15.5q80 0 140 36t101 95t62.5 135t21.5 158v506h121v-1016h-113l-4 197q-16 -33 -44.5 -72t-69.5 -72t-97.5 -55.5t-128.5 -22.5q-86 0 -150.5 38t-92.5 79v-543h-119z" />
<glyph unicode="&#xb6;" horiz-adv-x="1161" d="M109 1059q0 82 26.5 151.5t75.5 120.5t119.5 80t161.5 29h471v-1719h-119v1604h-240v-1604h-121v957q-90 0 -160.5 27.5t-117.5 78t-71.5 121t-24.5 154.5z" />
<glyph unicode="&#xb7;" horiz-adv-x="514" d="M158 709q0 49 28.5 80t71.5 31t71.5 -30t28.5 -81q0 -49 -29.5 -77.5t-72.5 -28.5t-70.5 28.5t-27.5 77.5z" />
<glyph unicode="&#xb8;" horiz-adv-x="1034" d="M291 -457l22 82q35 -10 69 -18t85 -8q76 0 117 28.5t41 85.5q0 100 -152 101q-29 0 -61 -7l41 193h100l-21 -100q104 -8 153.5 -57.5t49.5 -127.5q0 -98 -70.5 -151t-181.5 -53q-86 0 -134 14t-58 18z" />
<glyph unicode="&#xb9;" horiz-adv-x="868" d="M172 1262l266 163h90v-786h-104v668l-209 -123z" />
<glyph unicode="&#xba;" horiz-adv-x="780" d="M96 1147q0 70 20.5 130t59.5 103t93.5 68t119.5 25q141 0 218 -91.5t77 -234.5t-79 -233.5t-216 -90.5q-141 0 -217 88t-76 236zM106 639v82h570v-82h-570zM195 1147q0 -117 48 -179.5t146 -62.5t147.5 62.5t49.5 179.5t-49.5 180.5t-147.5 63.5q-92 0 -143 -63.5 t-51 -180.5z" />
<glyph unicode="&#xbb;" horiz-adv-x="960" d="M117 117l227 395l-227 395h123l235 -395l-235 -395h-123zM486 117l227 395l-227 395h123l235 -395l-235 -395h-123z" />
<glyph unicode="&#xbc;" horiz-adv-x="1875" d="M174 1262l266 163h90v-786h-104v668l-209 -123zM473 0l764 1413h125l-764 -1413h-125zM1120 174v59l326 557h108l-309 -528h242v203h92v-203h131v-88h-131v-170h-92v170h-367z" />
<glyph unicode="&#xbd;" horiz-adv-x="1875" d="M172 1262l266 163h90v-786h-104v668l-209 -123zM469 0l764 1413h125l-764 -1413h-125zM1166 676q12 18 34.5 40.5t55 42t75.5 33t97 13.5q123 0 189.5 -60.5t66.5 -154.5q0 -45 -17.5 -83t-46 -71t-67.5 -61.5t-82 -55.5q-37 -25 -70 -46t-57.5 -47.5t-40 -57.5 t-15.5 -74h408v-90h-516v39q0 59 12 105t40 86t73 77t110 78q72 45 115 88t43 109q0 59 -39 94t-112 35q-74 0 -121 -34t-74 -63z" />
<glyph unicode="&#xbe;" horiz-adv-x="1875" d="M189 1346q35 33 103.5 63.5t160.5 30.5q70 0 118 -17.5t77.5 -45t43 -64.5t13.5 -76q0 -74 -38 -120t-89 -68q61 -20 104 -66.5t43 -128.5q0 -104 -78.5 -167.5t-232.5 -63.5q-72 0 -125 9t-94 21l18 86q33 -10 81 -19t108 -9q117 0 166 40t49 105q0 63 -40 102t-145 39 h-114v86h110q82 0 128 40t46 110q0 59 -43 89t-116 30q-80 0 -131.5 -27t-75.5 -45zM545 0l764 1413h125l-764 -1413h-125zM1181 174v59l326 557h108l-309 -528h242v203h92v-203h131v-88h-131v-170h-92v170h-367z" />
<glyph unicode="&#xbf;" horiz-adv-x="1081" d="M133 -68q0 68 17.5 122.5t45 98.5t62.5 79.5t70 66.5q43 37 77.5 70.5t59 73.5t39 90.5t14.5 119.5h117q0 -78 -12.5 -135t-39 -105t-68.5 -92.5t-101 -97.5q-23 -20 -50.5 -48t-51 -63.5t-39 -77.5t-15.5 -91q0 -123 71.5 -197t221.5 -74q123 0 214 52.5t150 125.5 l74 -75q-27 -35 -66.5 -73t-96 -69.5t-129 -52t-160.5 -20.5q-102 0 -178 29.5t-126.5 80.5t-75 119t-24.5 143zM469 942q0 49 28.5 79t71.5 30t72 -30t29 -79t-29 -78.5t-72 -29.5t-71.5 28.5t-28.5 79.5z" />
<glyph unicode="&#xc0;" horiz-adv-x="1185" d="M39 0l481 1440h144l483 -1440h-133l-131 401h-592l-129 -401h-123zM318 1763l53 119l465 -229l-41 -90zM326 514h520l-258 778z" />
<glyph unicode="&#xc1;" horiz-adv-x="1185" d="M39 0l481 1440h144l483 -1440h-133l-131 401h-592l-129 -401h-123zM326 514h520l-258 778zM329 1653l465 229l53 -119l-477 -200z" />
<glyph unicode="&#xc2;" horiz-adv-x="1185" d="M39 0l481 1440h144l483 -1440h-133l-131 401h-592l-129 -401h-123zM240 1630l291 252h115l290 -252l-67 -69l-281 198l-280 -198zM326 514h520l-258 778z" />
<glyph unicode="&#xc3;" horiz-adv-x="1185" d="M39 0l481 1440h144l483 -1440h-133l-131 401h-592l-129 -401h-123zM232 1587q0 111 50 169.5t154 58.5q51 0 91 -18.5t74 -42t67 -42t71 -18.5q96 0 97 118h108q0 -117 -54 -172t-153 -55q-49 0 -88 18.5t-72.5 41t-66.5 41t-70 18.5q-100 0 -100 -117h-108zM326 514h520 l-258 778z" />
<glyph unicode="&#xc4;" horiz-adv-x="1185" d="M39 0l481 1440h144l483 -1440h-133l-131 401h-592l-129 -401h-123zM285 1708q0 49 28.5 78t69.5 29q43 0 71 -29t28 -78q0 -47 -28 -76.5t-71 -29.5q-41 0 -69.5 29.5t-28.5 76.5zM326 514h520l-258 778zM691 1708q0 49 28.5 78t69.5 29q43 0 71.5 -29t28.5 -78 q0 -47 -28.5 -76.5t-71.5 -29.5q-41 0 -69.5 29.5t-28.5 76.5z" />
<glyph unicode="&#xc5;" horiz-adv-x="1185" d="M39 0l467 1401q-63 20 -101 72.5t-38 123.5q0 49 17 88t48 68t71 44t87 15q98 0 158.5 -57t60.5 -156q0 -72 -38 -123t-97 -73l473 -1403h-133l-131 401h-592l-129 -401h-123zM326 514h520l-258 778zM465 1597q0 -57 35 -90.5t88 -33.5q55 0 90 32.5t35 91.5t-35 93 t-90 34q-51 0 -87 -32.5t-36 -94.5z" />
<glyph unicode="&#xc6;" horiz-adv-x="1730" d="M35 0l760 1440h852v-119h-664v-512h518v-119h-518v-571h684v-119h-811v416h-469l-217 -416h-135zM449 526h407v789z" />
<glyph unicode="&#xc7;" horiz-adv-x="1275" d="M139 713q0 168 38 306t115 236.5t192.5 152.5t271.5 54q84 0 153.5 -16t122.5 -40t91 -49.5t61 -45.5l-66 -92q-51 43 -139 87t-219 44q-233 0 -359.5 -160t-126.5 -477q0 -324 127 -472.5t359 -148.5q68 0 124 12.5t103 31t84 41t64 42.5l59 -92q-70 -59 -182.5 -104.5 t-259.5 -45.5h-7l-16 -77q104 -8 153.5 -59.5t49.5 -125.5q0 -98 -69.5 -151t-182.5 -53q-86 0 -134 14t-59 18l21 88q35 -10 69.5 -18t86.5 -8q72 0 110.5 24.5t38.5 81.5q0 45 -32.5 70.5t-108.5 25.5q-16 0 -35 -1t-35 -5l39 185q-260 31 -381 216t-121 511z" />
<glyph unicode="&#xc8;" horiz-adv-x="1069" d="M188 0v1440h795v-119h-666v-512h521v-119h-521v-571h687v-119h-816zM328 1763l53 119l465 -229l-41 -90z" />
<glyph unicode="&#xc9;" horiz-adv-x="1069" d="M188 0v1440h795v-119h-666v-512h521v-119h-521v-571h687v-119h-816zM350 1653l465 229l53 -119l-477 -200z" />
<glyph unicode="&#xca;" horiz-adv-x="1069" d="M188 0v1440h795v-119h-666v-512h521v-119h-521v-571h687v-119h-816zM256 1630l291 252h115l290 -252l-67 -69l-281 198l-280 -198z" />
<glyph unicode="&#xcb;" horiz-adv-x="1069" d="M188 0v1440h795v-119h-666v-512h521v-119h-521v-571h687v-119h-816zM289 1708q0 49 28.5 78t69.5 29q43 0 71 -29t28 -78q0 -47 -28 -76.5t-71 -29.5q-41 0 -69.5 29.5t-28.5 76.5zM695 1708q0 49 28.5 78t69.5 29q43 0 71.5 -29t28.5 -78q0 -47 -28.5 -76.5t-71.5 -29.5 q-41 0 -69.5 29.5t-28.5 76.5z" />
<glyph unicode="&#xcc;" horiz-adv-x="505" d="M6 1763l53 119l465 -229l-41 -90zM188 0v1440h129v-1440h-129z" />
<glyph unicode="&#xcd;" horiz-adv-x="505" d="M-2 1653l465 229l53 -119l-477 -200zM188 0v1440h129v-1440h-129z" />
<glyph unicode="&#xce;" horiz-adv-x="505" d="M-92 1630l291 252h115l290 -252l-67 -69l-281 198l-280 -198zM188 0v1440h129v-1440h-129z" />
<glyph unicode="&#xcf;" horiz-adv-x="505" d="M-45 1708q0 49 28.5 78t69.5 29q43 0 71 -29t28 -78q0 -47 -28 -76.5t-71 -29.5q-41 0 -69.5 29.5t-28.5 76.5zM188 0v1440h129v-1440h-129zM361 1708q0 49 28.5 78t69.5 29q43 0 71.5 -29t28.5 -78q0 -47 -28.5 -76.5t-71.5 -29.5q-41 0 -69.5 29.5t-28.5 76.5z" />
<glyph unicode="&#xd0;" horiz-adv-x="1411" d="M45 678v110h158v652h428q315 0 478 -187.5t163 -533.5q0 -174 -45 -308.5t-128 -225.5t-202 -138t-266 -47h-428v678h-158zM332 119h299q236 0 371 151.5t135 450.5q0 309 -136.5 454.5t-369.5 145.5h-299v-533h332v-110h-332v-559z" />
<glyph unicode="&#xd1;" horiz-adv-x="1351" d="M188 0v1440h136l714 -1221v1221h125v-1440h-125l-725 1227v-1227h-125zM328 1587q0 111 50 169.5t154 58.5q51 0 91 -18.5t74 -42t67 -42t71 -18.5q96 0 97 118h108q0 -117 -54 -172t-153 -55q-49 0 -88 18.5t-72.5 41t-66.5 41t-70 18.5q-100 0 -100 -117h-108z" />
<glyph unicode="&#xd2;" horiz-adv-x="1503" d="M141 721q0 168 40 306t118 236.5t192.5 152.5t262.5 54q147 0 260.5 -54t190.5 -152.5t117 -236.5t40 -306t-40 -306.5t-117 -237.5t-191.5 -153.5t-261.5 -54.5t-262 54.5t-192 153.5t-117 237.5t-40 306.5zM276 721q0 -143 29 -259t88.5 -199t148.5 -128t210 -45 t210 45t148 128t88 199t29 259t-29 259t-88 198t-148.5 127t-209.5 45q-121 0 -210 -45t-148.5 -127t-88.5 -198t-29 -259zM516 1763l53 119l465 -229l-41 -90z" />
<glyph unicode="&#xd3;" horiz-adv-x="1503" d="M141 721q0 168 40 306t118 236.5t192.5 152.5t262.5 54q147 0 260.5 -54t190.5 -152.5t117 -236.5t40 -306t-40 -306.5t-117 -237.5t-191.5 -153.5t-261.5 -54.5t-262 54.5t-192 153.5t-117 237.5t-40 306.5zM276 721q0 -143 29 -259t88.5 -199t148.5 -128t210 -45 t210 45t148 128t88 199t29 259t-29 259t-88 198t-148.5 127t-209.5 45q-121 0 -210 -45t-148.5 -127t-88.5 -198t-29 -259zM499 1653l465 229l53 -119l-477 -200z" />
<glyph unicode="&#xd4;" horiz-adv-x="1503" d="M141 721q0 168 40 306t118 236.5t192.5 152.5t262.5 54q147 0 260.5 -54t190.5 -152.5t117 -236.5t40 -306t-40 -306.5t-117 -237.5t-191.5 -153.5t-261.5 -54.5t-262 54.5t-192 153.5t-117 237.5t-40 306.5zM276 721q0 -143 29 -259t88.5 -199t148.5 -128t210 -45 t210 45t148 128t88 199t29 259t-29 259t-88 198t-148.5 127t-209.5 45q-121 0 -210 -45t-148.5 -127t-88.5 -198t-29 -259zM416 1630l291 252h115l290 -252l-67 -69l-281 198l-280 -198z" />
<glyph unicode="&#xd5;" horiz-adv-x="1503" d="M141 721q0 168 40 306t118 236.5t192.5 152.5t262.5 54q147 0 260.5 -54t190.5 -152.5t117 -236.5t40 -306t-40 -306.5t-117 -237.5t-191.5 -153.5t-261.5 -54.5t-262 54.5t-192 153.5t-117 237.5t-40 306.5zM276 721q0 -143 29 -259t88.5 -199t148.5 -128t210 -45 t210 45t148 128t88 199t29 259t-29 259t-88 198t-148.5 127t-209.5 45q-121 0 -210 -45t-148.5 -127t-88.5 -198t-29 -259zM412 1587q0 111 50 169.5t154 58.5q51 0 91 -18.5t74 -42t67 -42t71 -18.5q96 0 97 118h108q0 -117 -54 -172t-153 -55q-49 0 -88 18.5t-72.5 41 t-66.5 41t-70 18.5q-100 0 -100 -117h-108z" />
<glyph unicode="&#xd6;" horiz-adv-x="1503" d="M141 721q0 168 40 306t118 236.5t192.5 152.5t262.5 54q147 0 260.5 -54t190.5 -152.5t117 -236.5t40 -306t-40 -306.5t-117 -237.5t-191.5 -153.5t-261.5 -54.5t-262 54.5t-192 153.5t-117 237.5t-40 306.5zM276 721q0 -143 29 -259t88.5 -199t148.5 -128t210 -45 t210 45t148 128t88 199t29 259t-29 259t-88 198t-148.5 127t-209.5 45q-121 0 -210 -45t-148.5 -127t-88.5 -198t-29 -259zM461 1708q0 49 28.5 78t69.5 29q43 0 71 -29t28 -78q0 -47 -28 -76.5t-71 -29.5q-41 0 -69.5 29.5t-28.5 76.5zM867 1708q0 49 28.5 78t69.5 29 q43 0 71.5 -29t28.5 -78q0 -47 -28.5 -76.5t-71.5 -29.5q-41 0 -69.5 29.5t-28.5 76.5z" />
<glyph unicode="&#xd7;" d="M231 1018l80 74l295 -324l295 319l80 -71l-303 -322l297 -317l-78 -72l-293 316l-293 -314l-78 72l297 317z" />
<glyph unicode="&#xd8;" horiz-adv-x="1503" d="M141 721q0 168 40 306t117 236.5t191.5 152.5t262.5 54q106 0 192 -28.5t158 -81.5l112 176l91 -55l-123 -191q92 -98 136 -243.5t44 -325.5q0 -168 -40 -306.5t-117 -237.5t-191.5 -153.5t-261.5 -54.5q-205 0 -351 109l-102 -162l-90 57l113 177q-92 98 -136.5 244.5 t-44.5 326.5zM276 721q0 -143 30 -260t89 -199l641 993q-55 45 -125.5 70t-158.5 25q-121 0 -210 -45t-148.5 -127t-88.5 -198t-29 -259zM471 182q111 -92 281 -92q121 0 210 45t148 128t88 199t29 259q0 291 -119 455z" />
<glyph unicode="&#xd9;" horiz-adv-x="1339" d="M168 565v875h129v-846q0 -145 22.5 -243.5t68.5 -157t115.5 -83t166.5 -24.5q94 0 163.5 24.5t115.5 83t69.5 155.5t23.5 243v848h129v-877q0 -131 -23.5 -240.5t-81.5 -188.5t-155.5 -123t-244.5 -44t-242.5 44t-153 124t-80 189.5t-22.5 240.5zM408 1763l53 119 l465 -229l-41 -90z" />
<glyph unicode="&#xda;" horiz-adv-x="1339" d="M168 565v875h129v-846q0 -145 22.5 -243.5t68.5 -157t115.5 -83t166.5 -24.5q94 0 163.5 24.5t115.5 83t69.5 155.5t23.5 243v848h129v-877q0 -131 -23.5 -240.5t-81.5 -188.5t-155.5 -123t-244.5 -44t-242.5 44t-153 124t-80 189.5t-22.5 240.5zM459 1653l465 229 l53 -119l-477 -200z" />
<glyph unicode="&#xdb;" horiz-adv-x="1339" d="M168 565v875h129v-846q0 -145 22.5 -243.5t68.5 -157t115.5 -83t166.5 -24.5q94 0 163.5 24.5t115.5 83t69.5 155.5t23.5 243v848h129v-877q0 -131 -23.5 -240.5t-81.5 -188.5t-155.5 -123t-244.5 -44t-242.5 44t-153 124t-80 189.5t-22.5 240.5zM342 1630l291 252h115 l290 -252l-67 -69l-281 198l-280 -198z" />
<glyph unicode="&#xdc;" horiz-adv-x="1339" d="M168 565v875h129v-846q0 -145 22.5 -243.5t68.5 -157t115.5 -83t166.5 -24.5q94 0 163.5 24.5t115.5 83t69.5 155.5t23.5 243v848h129v-877q0 -131 -23.5 -240.5t-81.5 -188.5t-155.5 -123t-244.5 -44t-242.5 44t-153 124t-80 189.5t-22.5 240.5zM381 1708q0 49 28.5 78 t69.5 29q43 0 71 -29t28 -78q0 -47 -28 -76.5t-71 -29.5q-41 0 -69.5 29.5t-28.5 76.5zM787 1708q0 49 28.5 78t69.5 29q43 0 71.5 -29t28.5 -78q0 -47 -28.5 -76.5t-71.5 -29.5q-41 0 -69.5 29.5t-28.5 76.5z" />
<glyph unicode="&#xdd;" horiz-adv-x="1114" d="M35 1440h147l375 -688l383 688h139l-463 -807v-633h-129v629zM368 1653l465 229l53 -119l-477 -200z" />
<glyph unicode="&#xde;" horiz-adv-x="1150" d="M188 0v1440h127v-269h277q104 0 188 -29.5t143.5 -86t91.5 -138t32 -184.5q0 -98 -33 -179t-92.5 -138.5t-145.5 -89t-192 -31.5h-269v-295h-127zM315 410h260q166 0 254.5 84t88.5 239q0 166 -87.5 245t-246.5 79h-269v-647z" />
<glyph unicode="&#xdf;" horiz-adv-x="1241" d="M166 0v1042q0 238 98 373t320 135q94 0 166.5 -24.5t121 -66.5t73 -99t24.5 -123q0 -86 -36 -146.5t-91 -117.5q-51 -51 -91 -94t-40 -99q0 -31 15 -53t41 -40.5t60.5 -35t73.5 -37.5q61 -33 106.5 -64.5t76 -68.5t46 -83t15.5 -107q0 -66 -22.5 -123t-67.5 -100 t-111.5 -69t-155.5 -26q-43 0 -86 6.5t-81.5 16.5t-68.5 22.5t-46 24.5l37 92q51 -27 111.5 -42t131.5 -15q117 0 177.5 57.5t60.5 155.5q0 82 -47 134t-164 107q-63 31 -106 56.5t-69 53.5t-37 58.5t-11 71.5q0 76 43 131t96 107q47 47 84 97t37 122q0 106 -75 160.5 t-193 54.5q-164 0 -228.5 -105.5t-64.5 -304.5v-1034h-123z" />
<glyph unicode="&#xe0;" horiz-adv-x="1060" d="M104 281q0 147 94.5 240t284.5 93q45 0 92.5 -4t87 -8t70.5 -9t47 -7v100q0 135 -75.5 191.5t-217.5 56.5q-104 0 -170.5 -23.5t-109.5 -46.5l-39 90q39 23 127 54.5t223 31.5q180 0 278.5 -85t98.5 -259v-696h-109l-4 156q-61 -102 -160.5 -141.5t-203.5 -39.5 q-53 0 -109.5 15.5t-101.5 50.5t-74 94.5t-29 145.5zM221 283q0 -106 66.5 -157.5t177.5 -51.5q63 0 120.5 23.5t100.5 61.5t68.5 87t25.5 100v146q-16 4 -45.5 9t-68.5 9t-84 7t-88 3q-152 0 -212.5 -63.5t-60.5 -173.5zM276 1419l58 115l450 -242l-45 -88z" />
<glyph unicode="&#xe1;" horiz-adv-x="1060" d="M104 281q0 147 94.5 240t284.5 93q45 0 92.5 -4t87 -8t70.5 -9t47 -7v100q0 135 -75.5 191.5t-217.5 56.5q-104 0 -170.5 -23.5t-109.5 -46.5l-39 90q39 23 127 54.5t223 31.5q180 0 278.5 -85t98.5 -259v-696h-109l-4 156q-61 -102 -160.5 -141.5t-203.5 -39.5 q-53 0 -109.5 15.5t-101.5 50.5t-74 94.5t-29 145.5zM221 283q0 -106 66.5 -157.5t177.5 -51.5q63 0 120.5 23.5t100.5 61.5t68.5 87t25.5 100v146q-16 4 -45.5 9t-68.5 9t-84 7t-88 3q-152 0 -212.5 -63.5t-60.5 -173.5zM272 1292l451 242l57 -115l-465 -215z" />
<glyph unicode="&#xe2;" horiz-adv-x="1060" d="M104 281q0 147 94.5 240t284.5 93q45 0 92.5 -4t87 -8t70.5 -9t47 -7v100q0 135 -75.5 191.5t-217.5 56.5q-104 0 -170.5 -23.5t-109.5 -46.5l-39 90q39 23 127 54.5t223 31.5q180 0 278.5 -85t98.5 -259v-696h-109l-4 156q-61 -102 -160.5 -141.5t-203.5 -39.5 q-53 0 -109.5 15.5t-101.5 50.5t-74 94.5t-29 145.5zM205 1253l276 258h102l277 -258l-70 -65l-258 201l-258 -201zM221 283q0 -106 66.5 -157.5t177.5 -51.5q63 0 120.5 23.5t100.5 61.5t68.5 87t25.5 100v146q-16 4 -45.5 9t-68.5 9t-84 7t-88 3q-152 0 -212.5 -63.5 t-60.5 -173.5z" />
<glyph unicode="&#xe3;" horiz-adv-x="1060" d="M104 281q0 147 94.5 240t284.5 93q45 0 92.5 -4t87 -8t70.5 -9t47 -7v100q0 135 -75.5 191.5t-217.5 56.5q-104 0 -170.5 -23.5t-109.5 -46.5l-39 90q39 23 127 54.5t223 31.5q180 0 278.5 -85t98.5 -259v-696h-109l-4 156q-61 -102 -160.5 -141.5t-203.5 -39.5 q-53 0 -109.5 15.5t-101.5 50.5t-74 94.5t-29 145.5zM176 1194q0 106 50 166.5t148 60.5q51 0 89 -18.5t70 -42t63.5 -42t70.5 -18.5q51 0 71.5 32t20.5 87h109q0 -111 -51 -169t-150 -58q-49 0 -86 18.5t-70.5 41t-64.5 41t-67 18.5q-51 0 -73 -31t-22 -86h-108zM221 283 q0 -106 66.5 -157.5t177.5 -51.5q63 0 120.5 23.5t100.5 61.5t68.5 87t25.5 100v146q-16 4 -45.5 9t-68.5 9t-84 7t-88 3q-152 0 -212.5 -63.5t-60.5 -173.5z" />
<glyph unicode="&#xe4;" horiz-adv-x="1060" d="M104 281q0 147 94.5 240t284.5 93q45 0 92.5 -4t87 -8t70.5 -9t47 -7v100q0 135 -75.5 191.5t-217.5 56.5q-104 0 -170.5 -23.5t-109.5 -46.5l-39 90q39 23 127 54.5t223 31.5q180 0 278.5 -85t98.5 -259v-696h-109l-4 156q-61 -102 -160.5 -141.5t-203.5 -39.5 q-53 0 -109.5 15.5t-101.5 50.5t-74 94.5t-29 145.5zM221 283q0 -106 66.5 -157.5t177.5 -51.5q63 0 120.5 23.5t100.5 61.5t68.5 87t25.5 100v146q-16 4 -45.5 9t-68.5 9t-84 7t-88 3q-152 0 -212.5 -63.5t-60.5 -173.5zM230 1311q0 47 27.5 74.5t68.5 27.5t67.5 -27.5 t26.5 -74.5t-26.5 -75t-67.5 -28t-68.5 28t-27.5 75zM639 1311q0 47 27 74.5t68 27.5t68.5 -27.5t27.5 -74.5t-27.5 -75t-68.5 -28t-68 28t-27 75z" />
<glyph unicode="&#xe5;" horiz-adv-x="1060" d="M104 281q0 147 94.5 240t284.5 93q45 0 92.5 -4t87 -8t70.5 -9t47 -7v100q0 135 -75.5 191.5t-217.5 56.5q-104 0 -170.5 -23.5t-109.5 -46.5l-39 90q39 23 127 54.5t223 31.5q180 0 278.5 -85t98.5 -259v-696h-109l-4 156q-61 -102 -160.5 -141.5t-203.5 -39.5 q-53 0 -109.5 15.5t-101.5 50.5t-74 94.5t-29 145.5zM221 283q0 -106 66.5 -157.5t177.5 -51.5q63 0 120.5 23.5t100.5 61.5t68.5 87t25.5 100v146q-16 4 -45.5 9t-68.5 9t-84 7t-88 3q-152 0 -212.5 -63.5t-60.5 -173.5zM315 1378q0 98 63.5 154.5t155.5 56.5 q98 0 156.5 -55.5t58.5 -153.5t-60.5 -154.5t-154.5 -56.5q-98 0 -158.5 55.5t-60.5 153.5zM409 1378q0 -59 35 -93t88 -34q55 0 90 34t35 93t-35 93t-90 34q-51 0 -87 -32.5t-36 -94.5z" />
<glyph unicode="&#xe6;" horiz-adv-x="1765" d="M104 281q0 160 101.5 244.5t288.5 84.5q59 0 138 -6t146 -18v96q0 123 -76.5 187.5t-207.5 64.5q-104 0 -178 -24.5t-109 -45.5l-39 90q33 25 120 55.5t236 30.5q129 0 212 -56t128 -144q25 37 57.5 73.5t75.5 65.5t98.5 46t123.5 17q221 0 322 -137t101 -395v-35h-745 q4 -86 26.5 -156.5t67.5 -122t114 -80t167 -28.5q59 0 103 6t76 15.5t53.5 18.5t37.5 15l35 -94q-25 -16 -101.5 -44t-215.5 -28q-98 0 -168 24t-119 58.5t-79 76.5t-48 79q-16 -35 -46 -77t-78 -77.5t-119 -60.5t-169 -25q-147 0 -238.5 79t-91.5 227zM221 281 q0 -100 63.5 -153.5t180.5 -53.5q68 0 125 20.5t99 56t65.5 84t23.5 103.5v149q-10 2 -41.5 7.5t-72.5 10.5t-86.5 9t-83.5 4q-141 0 -207 -56t-66 -181zM899 573h621q-10 178 -81 269.5t-220 91.5q-147 0 -228.5 -97.5t-91.5 -263.5z" />
<glyph unicode="&#xe7;" horiz-adv-x="962" d="M127 508q0 119 31.5 217t91 169t143.5 109.5t191 38.5q66 0 115 -11t85.5 -26.5t62 -32t42.5 -28.5l-55 -90q-14 8 -37 21.5t-53.5 25.5t-69.5 20.5t-84 8.5q-147 0 -242.5 -103.5t-95.5 -316.5q0 -109 25.5 -188.5t69.5 -131t106.5 -76t136.5 -24.5q94 0 153.5 19.5 t96.5 37.5l45 -90q-29 -23 -101.5 -51.5t-201.5 -28.5h-2l-17 -77q104 -8 153.5 -57.5t49.5 -127.5q0 -98 -70.5 -151t-181.5 -53q-86 0 -134 14t-58 18l22 82q35 -10 68.5 -18t85.5 -8q76 0 116.5 28.5t40.5 85.5q0 100 -151 101q-29 0 -62 -7l37 181q-172 29 -262 163 t-90 357z" />
<glyph unicode="&#xe8;" horiz-adv-x="1116" d="M127 508q0 121 30.5 220t88 169t140.5 107.5t187 37.5q98 0 176 -29.5t132.5 -96t83 -170t28.5 -250.5v-21h-745q10 -182 101 -284.5t280 -102.5q98 0 161.5 19.5t102.5 35.5l35 -94q-31 -20 -113 -46t-199 -26q-248 0 -368.5 137.5t-120.5 393.5zM250 573h622 q-12 174 -81.5 267.5t-219.5 93.5q-154 0 -229.5 -93t-91.5 -268zM348 1419l58 115l450 -242l-45 -88z" />
<glyph unicode="&#xe9;" horiz-adv-x="1116" d="M127 508q0 121 30.5 220t88 169t140.5 107.5t187 37.5q98 0 176 -29.5t132.5 -96t83 -170t28.5 -250.5v-21h-745q10 -182 101 -284.5t280 -102.5q98 0 161.5 19.5t102.5 35.5l35 -94q-31 -20 -113 -46t-199 -26q-248 0 -368.5 137.5t-120.5 393.5zM250 573h622 q-12 174 -81.5 267.5t-219.5 93.5q-154 0 -229.5 -93t-91.5 -268zM325 1292l451 242l57 -115l-465 -215z" />
<glyph unicode="&#xea;" horiz-adv-x="1116" d="M127 508q0 121 30.5 220t88 169t140.5 107.5t187 37.5q98 0 176 -29.5t132.5 -96t83 -170t28.5 -250.5v-21h-745q10 -182 101 -284.5t280 -102.5q98 0 161.5 19.5t102.5 35.5l35 -94q-31 -20 -113 -46t-199 -26q-248 0 -368.5 137.5t-120.5 393.5zM250 573h622 q-12 174 -81.5 267.5t-219.5 93.5q-154 0 -229.5 -93t-91.5 -268zM256 1253l276 258h102l277 -258l-70 -65l-258 201l-258 -201z" />
<glyph unicode="&#xeb;" horiz-adv-x="1116" d="M127 508q0 121 30.5 220t88 169t140.5 107.5t187 37.5q98 0 176 -29.5t132.5 -96t83 -170t28.5 -250.5v-21h-745q10 -182 101 -284.5t280 -102.5q98 0 161.5 19.5t102.5 35.5l35 -94q-31 -20 -113 -46t-199 -26q-248 0 -368.5 137.5t-120.5 393.5zM250 573h622 q-12 174 -81.5 267.5t-219.5 93.5q-154 0 -229.5 -93t-91.5 -268zM283 1311q0 47 27.5 74.5t68.5 27.5t67.5 -27.5t26.5 -74.5t-26.5 -75t-67.5 -28t-68.5 28t-27.5 75zM692 1311q0 47 27 74.5t68 27.5t68.5 -27.5t27.5 -74.5t-27.5 -75t-68.5 -28t-68 28t-27 75z" />
<glyph unicode="&#xec;" horiz-adv-x="468" d="M-15 1419l58 115l450 -242l-45 -88zM172 0v1016h123v-1016h-123z" />
<glyph unicode="&#xed;" horiz-adv-x="468" d="M2 1292l451 242l57 -115l-465 -215zM172 0v1016h123v-1016h-123z" />
<glyph unicode="&#xee;" horiz-adv-x="468" d="M-81 1253l276 258h102l277 -258l-70 -65l-258 201l-258 -201zM172 0v1016h123v-1016h-123z" />
<glyph unicode="&#xef;" horiz-adv-x="468" d="M-65 1311q0 47 27.5 74.5t68.5 27.5t67.5 -27.5t26.5 -74.5t-26.5 -75t-67.5 -28t-68.5 28t-27.5 75zM172 0v1016h123v-1016h-123zM344 1311q0 47 27 74.5t68 27.5t68.5 -27.5t27.5 -74.5t-27.5 -75t-68.5 -28t-68 28t-27 75z" />
<glyph unicode="&#xf0;" horiz-adv-x="1153" d="M131 471q0 111 32 200t89 150.5t135 94t168 32.5q123 0 203 -45t137 -127q-10 172 -71.5 296t-184.5 222l-213 -178l-64 72l199 162q-55 37 -118.5 66.5t-131.5 51.5l33 97q88 -29 167 -67t136 -79l182 152l62 -74l-166 -131q160 -129 234.5 -317.5t74.5 -423.5 q0 -152 -25.5 -273t-81 -205t-141.5 -129t-206 -45q-227 0 -338 133.5t-111 364.5zM254 469q0 -193 80 -289t246 -96q160 0 238.5 102.5t78.5 294.5q0 78 -21.5 143.5t-63.5 113.5t-102.5 75t-138.5 27q-162 0 -239.5 -102.5t-77.5 -268.5z" />
<glyph unicode="&#xf1;" horiz-adv-x="1150" d="M166 0v1016h113l4 -201q47 98 138 162.5t220 64.5q178 0 265 -96t87 -282v-664h-121v647q0 80 -19 135.5t-53 88t-80 47t-102 14.5q-78 0 -139 -36t-104 -93.5t-65.5 -131t-22.5 -149.5v-522h-121zM240 1194q0 106 50 166.5t148 60.5q51 0 89 -18.5t70 -42t63.5 -42 t70.5 -18.5q51 0 71.5 32t20.5 87h109q0 -111 -51 -169t-150 -58q-49 0 -86 18.5t-70.5 41t-64.5 41t-67 18.5q-51 0 -73 -31t-22 -86h-108z" />
<glyph unicode="&#xf2;" horiz-adv-x="1189" d="M127 510q0 117 30.5 214t89 168t145.5 110.5t202 39.5q117 0 204 -39.5t145 -110.5t88 -168t30 -214t-31 -215t-89 -169t-146 -110t-201 -39q-115 0 -203 39t-146.5 110t-88 169t-29.5 215zM252 510q0 -197 84 -309.5t258 -112.5q176 0 260 113.5t84 308.5q0 190 -85 306 t-259 116q-172 0 -257 -116t-85 -306zM366 1419l58 115l450 -242l-45 -88z" />
<glyph unicode="&#xf3;" horiz-adv-x="1189" d="M127 510q0 117 30.5 214t89 168t145.5 110.5t202 39.5q117 0 204 -39.5t145 -110.5t88 -168t30 -214t-31 -215t-89 -169t-146 -110t-201 -39q-115 0 -203 39t-146.5 110t-88 169t-29.5 215zM252 510q0 -197 84 -309.5t258 -112.5q176 0 260 113.5t84 308.5q0 190 -85 306 t-259 116q-172 0 -257 -116t-85 -306zM346 1292l451 242l57 -115l-465 -215z" />
<glyph unicode="&#xf4;" horiz-adv-x="1189" d="M127 510q0 117 30.5 214t89 168t145.5 110.5t202 39.5q117 0 204 -39.5t145 -110.5t88 -168t30 -214t-31 -215t-89 -169t-146 -110t-201 -39q-115 0 -203 39t-146.5 110t-88 169t-29.5 215zM252 510q0 -197 84 -309.5t258 -112.5q176 0 260 113.5t84 308.5q0 190 -85 306 t-259 116q-172 0 -257 -116t-85 -306zM283 1253l276 258h102l277 -258l-70 -65l-258 201l-258 -201z" />
<glyph unicode="&#xf5;" horiz-adv-x="1189" d="M127 510q0 117 30.5 214t89 168t145.5 110.5t202 39.5q117 0 204 -39.5t145 -110.5t88 -168t30 -214t-31 -215t-89 -169t-146 -110t-201 -39q-115 0 -203 39t-146.5 110t-88 169t-29.5 215zM252 510q0 -197 84 -309.5t258 -112.5q176 0 260 113.5t84 308.5q0 190 -85 306 t-259 116q-172 0 -257 -116t-85 -306zM256 1194q0 106 50 166.5t148 60.5q51 0 89 -18.5t70 -42t63.5 -42t70.5 -18.5q51 0 71.5 32t20.5 87h109q0 -111 -51 -169t-150 -58q-49 0 -86 18.5t-70.5 41t-64.5 41t-67 18.5q-51 0 -73 -31t-22 -86h-108z" />
<glyph unicode="&#xf6;" horiz-adv-x="1189" d="M127 510q0 117 30.5 214t89 168t145.5 110.5t202 39.5q117 0 204 -39.5t145 -110.5t88 -168t30 -214t-31 -215t-89 -169t-146 -110t-201 -39q-115 0 -203 39t-146.5 110t-88 169t-29.5 215zM252 510q0 -197 84 -309.5t258 -112.5q176 0 260 113.5t84 308.5q0 190 -85 306 t-259 116q-172 0 -257 -116t-85 -306zM303 1311q0 47 27.5 74.5t68.5 27.5t67.5 -27.5t26.5 -74.5t-26.5 -75t-67.5 -28t-68.5 28t-27.5 75zM712 1311q0 47 27 74.5t68 27.5t68.5 -27.5t27.5 -74.5t-27.5 -75t-68.5 -28t-68 28t-27 75z" />
<glyph unicode="&#xf7;" d="M174 655v109h864v-109h-864zM506 365q0 47 28.5 76.5t71.5 29.5q41 0 70 -29.5t29 -76.5t-29 -77t-70 -30q-43 0 -71.5 29.5t-28.5 77.5zM506 1047q0 47 28.5 76.5t71.5 29.5q41 0 70 -29.5t29 -76.5q0 -45 -29 -76t-70 -31q-43 0 -71.5 29.5t-28.5 77.5z" />
<glyph unicode="&#xf8;" horiz-adv-x="1189" d="M127 510q0 117 30.5 214t89 168t145.5 110.5t202 39.5q156 0 264 -73l94 135l78 -53l-100 -144q66 -72 98.5 -173t32.5 -224q0 -117 -31 -215t-89 -169t-146 -110t-201 -39q-156 0 -264 72l-88 -127l-80 51l96 138q-66 72 -98.5 174t-32.5 225zM252 510q0 -190 76 -297 l463 661q-78 57 -197 58q-172 0 -257 -115t-85 -307zM395 143q78 -57 199 -57q172 0 256 111.5t88 300.5q0 31 -2 60.5t-6 57.5q-18 111 -72 189z" />
<glyph unicode="&#xf9;" horiz-adv-x="1157" d="M166 352v664h121v-647q0 -80 18.5 -134.5t52 -87t79.5 -47t102 -14.5q78 0 139 35t104 92t65.5 130t22.5 151v522h121v-1016h-112l-5 197q-49 -98 -138 -160t-230 -62q-340 0 -340 377zM309 1419l58 115l450 -242l-45 -88z" />
<glyph unicode="&#xfa;" horiz-adv-x="1157" d="M166 352v664h121v-647q0 -80 18.5 -134.5t52 -87t79.5 -47t102 -14.5q78 0 139 35t104 92t65.5 130t22.5 151v522h121v-1016h-112l-5 197q-49 -98 -138 -160t-230 -62q-340 0 -340 377zM329 1292l451 242l57 -115l-465 -215z" />
<glyph unicode="&#xfb;" horiz-adv-x="1157" d="M166 352v664h121v-647q0 -80 18.5 -134.5t52 -87t79.5 -47t102 -14.5q78 0 139 35t104 92t65.5 130t22.5 151v522h121v-1016h-112l-5 197q-49 -98 -138 -160t-230 -62q-340 0 -340 377zM263 1253l276 258h102l277 -258l-70 -65l-258 201l-258 -201z" />
<glyph unicode="&#xfc;" horiz-adv-x="1157" d="M166 352v664h121v-647q0 -80 18.5 -134.5t52 -87t79.5 -47t102 -14.5q78 0 139 35t104 92t65.5 130t22.5 151v522h121v-1016h-112l-5 197q-49 -98 -138 -160t-230 -62q-340 0 -340 377zM281 1311q0 47 27.5 74.5t68.5 27.5t67.5 -27.5t26.5 -74.5t-26.5 -75t-67.5 -28 t-68.5 28t-27.5 75zM690 1311q0 47 27 74.5t68 27.5t68.5 -27.5t27.5 -74.5t-27.5 -75t-68.5 -28t-68 28t-27 75z" />
<glyph unicode="&#xfd;" horiz-adv-x="1003" d="M45 1016h135l324 -830l330 830h124l-612 -1467h-119l211 500zM307 1292l451 242l57 -115l-465 -215z" />
<glyph unicode="&#xfe;" horiz-adv-x="1185" d="M166 -451v1987h121v-715q45 92 135 156.5t221 64.5q104 0 182 -39.5t130.5 -109.5t78 -165t25.5 -206q0 -150 -40 -252t-103.5 -165.5t-142.5 -91t-159 -27.5q-100 0 -183 34.5t-144 83.5v-555h-121zM287 229q18 -18 50 -41.5t72 -44t87 -35t96 -14.5q158 0 250 101.5 t92 326.5q0 88 -18.5 163t-56.5 130t-96 86t-138 31t-142.5 -37t-106.5 -97.5t-66.5 -137t-22.5 -158.5v-273z" />
<glyph unicode="&#xff;" horiz-adv-x="1003" d="M45 1016h135l324 -830l330 830h124l-612 -1467h-119l211 500zM215 1311q0 47 27.5 74.5t68.5 27.5t67.5 -27.5t26.5 -74.5t-26.5 -75t-67.5 -28t-68.5 28t-27.5 75zM624 1311q0 47 27 74.5t68 27.5t68.5 -27.5t27.5 -74.5t-27.5 -75t-68.5 -28t-68 28t-27 75z" />
<glyph unicode="&#x152;" horiz-adv-x="1820" d="M139 715q0 166 40 300t121 228t203 145.5t285 51.5h955v-121h-664v-510h518v-119h-518v-569h684v-121h-977q-332 0 -489.5 179t-157.5 536zM272 715q0 -303 125 -448.5t389 -145.5h166v1200h-161q-266 0 -392.5 -151.5t-126.5 -454.5z" />
<glyph unicode="&#x153;" horiz-adv-x="1935" d="M127 510q0 117 30.5 214t89 168t145.5 110.5t202 39.5q160 0 257 -69.5t148 -188.5q53 119 149.5 188.5t233.5 69.5q98 0 176 -29.5t132.5 -96t84 -170t29.5 -250.5v-21h-749q10 -184 101 -285.5t282 -101.5q98 0 162.5 19.5t103.5 35.5l33 -94q-29 -20 -111 -46 t-199 -26q-166 0 -271 64.5t-159 187.5q-53 -117 -154.5 -184.5t-248.5 -67.5q-115 0 -203 39t-146.5 110t-88 169t-29.5 215zM252 510q0 -197 84 -309.5t258 -112.5q178 0 262 112.5t84 309.5q0 190 -86 306t-260 116q-172 0 -257 -116t-85 -306zM1057 573h624 q-10 174 -79.5 267.5t-219.5 93.5q-154 0 -231.5 -93t-93.5 -268z" />
<glyph unicode="&#x178;" horiz-adv-x="1114" d="M35 1440h147l375 -688l383 688h139l-463 -807v-633h-129v629zM264 1708q0 49 28.5 78t69.5 29q43 0 71 -29t28 -78q0 -47 -28 -76.5t-71 -29.5q-41 0 -69.5 29.5t-28.5 76.5zM670 1708q0 49 28.5 78t69.5 29q43 0 71.5 -29t28.5 -78q0 -47 -28.5 -76.5t-71.5 -29.5 q-41 0 -69.5 29.5t-28.5 76.5z" />
<glyph unicode="&#x2c6;" horiz-adv-x="1034" d="M195 1253l276 258h102l277 -258l-70 -65l-258 201l-258 -201z" />
<glyph unicode="&#x2dc;" horiz-adv-x="1034" d="M162 1194q0 106 50 166.5t148 60.5q51 0 89 -18.5t70 -42t63.5 -42t70.5 -18.5q51 0 71.5 32t20.5 87h109q0 -111 -51 -169t-150 -58q-49 0 -86 18.5t-70.5 41t-64.5 41t-67 18.5q-51 0 -73 -31t-22 -86h-108z" />
<glyph unicode="&#x2000;" horiz-adv-x="941" />
<glyph unicode="&#x2001;" horiz-adv-x="1882" />
<glyph unicode="&#x2002;" horiz-adv-x="941" />
<glyph unicode="&#x2003;" horiz-adv-x="1882" />
<glyph unicode="&#x2004;" horiz-adv-x="627" />
<glyph unicode="&#x2005;" horiz-adv-x="470" />
<glyph unicode="&#x2006;" horiz-adv-x="313" />
<glyph unicode="&#x2007;" horiz-adv-x="313" />
<glyph unicode="&#x2008;" horiz-adv-x="235" />
<glyph unicode="&#x2009;" horiz-adv-x="376" />
<glyph unicode="&#x200a;" horiz-adv-x="104" />
<glyph unicode="&#x2010;" horiz-adv-x="864" d="M137 516v117h588v-117h-588z" />
<glyph unicode="&#x2011;" horiz-adv-x="864" d="M137 516v117h588v-117h-588z" />
<glyph unicode="&#x2012;" horiz-adv-x="864" d="M137 516v117h588v-117h-588z" />
<glyph unicode="&#x2013;" horiz-adv-x="845" d="M0 522v109h846v-109h-846z" />
<glyph unicode="&#x2014;" horiz-adv-x="1691" d="M0 522v109h1692v-109h-1692z" />
<glyph unicode="&#x2018;" horiz-adv-x="505" d="M150 1135q0 41 12 94t34.5 108.5t53.5 107.5t69 91l66 -47q-23 -31 -42 -67t-33.5 -72.5t-24 -71.5t-11.5 -61q31 -8 53.5 -33t22.5 -66q0 -53 -29.5 -81.5t-70.5 -28.5q-49 0 -74.5 34.5t-25.5 92.5z" />
<glyph unicode="&#x2019;" horiz-adv-x="505" d="M121 1055q23 31 42 66.5t33.5 72.5t23.5 71.5t11 61.5q-31 8 -53 32.5t-22 65.5q0 53 29.5 82t70.5 29q49 0 74.5 -35t25.5 -92q0 -41 -12 -94t-34.5 -108.5t-53.5 -107.5t-70 -91z" />
<glyph unicode="&#x201a;" horiz-adv-x="505" d="M125 -272q23 31 41 66.5t31.5 72.5t22.5 71.5t11 61.5q-29 8 -52 34.5t-23 63.5q0 53 29.5 84t70.5 31q47 0 73.5 -35t26.5 -94q0 -43 -12 -96.5t-35.5 -108.5t-55.5 -107.5t-69 -90.5z" />
<glyph unicode="&#x201c;" horiz-adv-x="874" d="M136 1135q0 41 12 94t34.5 108.5t53.5 107.5t69 91l66 -47q-23 -31 -42 -67t-33.5 -72.5t-24 -71.5t-11.5 -61q31 -8 53.5 -33t22.5 -66q0 -53 -29.5 -81.5t-70.5 -28.5q-49 0 -74.5 34.5t-25.5 92.5zM500 1135q0 41 12 94t34.5 108.5t53.5 107.5t69 91l66 -47 q-23 -31 -42 -67t-33.5 -72.5t-24 -71.5t-11.5 -61q31 -8 53.5 -33t22.5 -66q0 -53 -29.5 -81.5t-70.5 -28.5q-49 0 -74.5 34.5t-25.5 92.5z" />
<glyph unicode="&#x201d;" horiz-adv-x="874" d="M139 1055q23 31 42 66.5t33.5 72.5t23.5 71.5t11 61.5q-31 8 -53 32.5t-22 65.5q0 53 29.5 82t70.5 29q49 0 74.5 -35t25.5 -92q0 -41 -12 -94t-34.5 -108.5t-53.5 -107.5t-70 -91zM508 1055q23 31 42 66.5t33.5 72.5t23.5 71.5t11 61.5q-31 8 -53 32.5t-22 65.5 q0 53 29.5 82t70.5 29q49 0 74.5 -35t25.5 -92q0 -41 -12 -94t-34.5 -108.5t-53.5 -107.5t-70 -91z" />
<glyph unicode="&#x201e;" horiz-adv-x="874" d="M125 -272q23 31 41 66.5t31.5 72.5t22.5 71.5t11 61.5q-29 8 -52 34.5t-23 63.5q0 53 29.5 84t70.5 31q47 0 73.5 -35t26.5 -94q0 -43 -12 -96.5t-35.5 -108.5t-55.5 -107.5t-69 -90.5zM494 -272q23 31 41 66.5t31.5 72.5t22.5 71.5t11 61.5q-29 8 -52 34.5t-23 63.5 q0 53 29.5 84t70.5 31q47 0 73.5 -35t26.5 -94q0 -43 -12 -96.5t-35.5 -108.5t-55.5 -107.5t-69 -90.5z" />
<glyph unicode="&#x2022;" horiz-adv-x="915" d="M178 694q0 57 21.5 108.5t59.5 89.5t89 59.5t111 21.5q57 0 108 -21.5t89 -59.5t59.5 -89t21.5 -109q0 -59 -21.5 -111.5t-59.5 -90t-89 -59t-108 -21.5q-59 0 -110.5 21.5t-89.5 59t-59.5 90t-21.5 111.5z" />
<glyph unicode="&#x2026;" horiz-adv-x="1669" d="M213 88q0 49 28.5 80t71.5 31t71.5 -30t28.5 -81q0 -49 -29.5 -77.5t-72.5 -28.5t-70.5 28.5t-27.5 77.5zM736 88q0 49 28.5 80t71.5 31t71.5 -30t28.5 -81q0 -49 -29.5 -77.5t-72.5 -28.5t-70.5 28.5t-27.5 77.5zM1256 88q0 49 28.5 80t71.5 31t71.5 -30t28.5 -81 q0 -49 -29.5 -77.5t-72.5 -28.5t-70.5 28.5t-27.5 77.5z" />
<glyph unicode="&#x202f;" horiz-adv-x="376" />
<glyph unicode="&#x2039;" horiz-adv-x="591" d="M117 512l235 395h123l-227 -395l227 -395h-123z" />
<glyph unicode="&#x203a;" horiz-adv-x="591" d="M117 117l227 395l-227 395h123l235 -395l-235 -395h-123z" />
<glyph unicode="&#x205f;" horiz-adv-x="470" />
<glyph unicode="&#x20ac;" d="M59 498v104h140q-4 51 -4 72.5v40.5v40t4 72h-138v105h152q16 106 54 203.5t104.5 170t162 115.5t224.5 43q145 0 240.5 -44t154.5 -97l-61 -90q-18 14 -47 34.5t-70 39t-93.5 32t-119.5 13.5q-104 0 -180 -36t-126 -95.5t-78 -135t-36 -153.5h590l-33 -105h-569 q-2 -47 -2 -71.5v-40.5v-43t2 -70h526l-31 -104h-483q8 -80 33.5 -154t75 -131t122 -91t177.5 -34q74 0 129 12.5t96 31t69.5 38.5t47.5 37l61 -88q-55 -53 -154.5 -98.5t-253.5 -45.5q-127 0 -220 37t-158.5 104.5t-104.5 164t-53 217.5h-150z" />
<glyph unicode="&#x2122;" horiz-adv-x="1732" d="M78 1346v94h614v-94h-256v-691h-104v691h-254zM858 655v785h111l256 -445l260 445h106v-785h-100v625l-229 -387h-84l-220 379v-617h-100z" />
<glyph unicode="&#x25fc;" horiz-adv-x="1013" d="M0 0v1014h1014v-1014h-1014z" />
<glyph unicode="&#xfb01;" d="M70 909v107h200v110q0 94 17.5 172t58.5 134.5t107.5 87t162.5 30.5q51 0 94.5 -7t65.5 -13l-16 -100q-16 4 -49 8t-66 4q-74 0 -122 -18.5t-77.5 -59.5t-41 -105.5t-11.5 -158.5v-84h645v-1016h-123v909h-522v-909h-123v909h-200zM883 1356q0 45 25.5 72.5t66.5 27.5 t67.5 -27.5t26.5 -72.5q0 -47 -26.5 -74t-67.5 -27t-66.5 28t-25.5 73z" />
<glyph unicode="&#xfb02;" horiz-adv-x="1218" d="M70 909v107h200v110q0 94 17.5 172t58.5 134.5t107.5 87t162.5 30.5q51 0 94.5 -7t65.5 -13l-16 -100q-16 4 -49 8t-66 4q-74 0 -122 -18.5t-77.5 -59.5t-41 -105.5t-11.5 -158.5v-84h314v-107h-314v-909h-123v909h-200zM932 0v1536h121v-1536h-121z" />
</font>
</defs>
</svg>
